<svg width="33" height="33" fill="none" xmlns="http://www.w3.org/2000/svg"><g opacity=".75" clip-path="url(#a)" fill="#fff"><path d="M30.8 24.948v-8.22a2.245 2.245 0 0 0 1.381-2.07v-3.806c0-.931-.57-1.731-1.38-2.07v-.034a3.579 3.579 0 0 0-3.575-3.574l-.4.008C24.473 2.038 20.72 0 16.5 0c-2.444 0-4.823.687-6.88 1.987a.483.483 0 1 0 .517.818A11.887 11.887 0 0 1 16.5.967c6.575 0 11.924 5.349 11.924 11.924 0 6.575-5.349 11.924-11.924 11.924-6.575 0-11.924-5.349-11.924-11.924 0-3.457 1.498-6.74 4.111-9.008a.483.483 0 1 0-.634-.73 12.918 12.918 0 0 0-1.878 2.02h-.4A3.579 3.579 0 0 0 2.2 8.748v.035a2.244 2.244 0 0 0-1.381 2.069v3.806c0 .931.57 1.731 1.38 2.07v8.23a8.23 8.23 0 0 0-1.573 4.847v2.712c0 .267.217.483.484.483h30.78a.483.483 0 0 0 .483-.483v-2.713a8.229 8.229 0 0 0-1.573-4.856Zm-2.931-4.435a1.673 1.673 0 0 0-.686-.415 12.852 12.852 0 0 0 1.57-3.199h1.08v6.945a8.293 8.293 0 0 0-1.696-1.25 1.775 1.775 0 0 0-.268-2.081Zm3.345-9.661v3.806c0 .703-.572 1.275-1.274 1.275h-.912a12.87 12.87 0 0 0 .363-3.042c0-1.145-.15-2.256-.432-3.314h.98c.703 0 1.275.572 1.275 1.275ZM29.83 8.61h-1.17c-.306-.865-.7-1.688-1.174-2.458A2.612 2.612 0 0 1 29.83 8.61ZM16.5 25.782c4.034 0 7.64-1.863 10.006-4.773l.028-.004c.237-.051.48.02.65.192a.758.758 0 0 1 .208.536.758.758 0 0 1-.207.536c-1.468 1.468-3.125 2.624-4.925 3.437-1.879.849-3.825 1.28-5.785 1.28-3.835 0-7.62-1.658-10.657-4.666-.277-.274-.28-.795-.005-1.072a.707.707 0 0 1 .718-.176l.017.004a12.87 12.87 0 0 0 9.952 4.706ZM4.248 16.9c.38 1.161.921 2.25 1.597 3.24a1.673 1.673 0 0 0-.72.429c-.527.533-.62 1.39-.282 2.038-.61.343-1.174.76-1.676 1.243V16.9h1.08ZM5.51 6.154a12.89 12.89 0 0 0-1.17 2.457H3.17a2.612 2.612 0 0 1 2.34-2.457Zm-3.725 8.504v-3.806c0-.703.571-1.275 1.274-1.275h.983a12.886 12.886 0 0 0-.07 6.356H3.06a1.276 1.276 0 0 1-1.274-1.275Zm29.62 17.375H26.61v-.66a2.09 2.09 0 0 0-2.087-2.087h-12.08a.483.483 0 1 0 0 .967h12.08c.618 0 1.12.503 1.12 1.12v.66H7.356v-.66c0-.617.502-1.12 1.12-1.12h2.034a.483.483 0 0 0 0-.967H8.476a2.09 2.09 0 0 0-2.087 2.088v.66H1.594v-2.23a7.249 7.249 0 0 1 3.9-6.452 17.55 17.55 0 0 0 4.834 3.25c1.996.896 4.064 1.35 6.147 1.35 2.098 0 4.178-.46 6.183-1.365a17.518 17.518 0 0 0 4.815-3.252 7.255 7.255 0 0 1 3.934 6.47v2.228Z"/><path d="M6.652 9.118c-.14.207-.215.446-.215.693v6.845c0 .246.075.486.215.692 1.942 2.85 5.715 4.624 9.849 4.631 4.132-.007 7.905-1.782 9.846-4.631.141-.206.215-.446.215-.692V9.81c0-.247-.074-.486-.215-.693-1.941-2.85-5.714-4.624-9.846-4.631h-.002c-4.132.007-7.905 1.782-9.847 4.631ZM16.5 5.454c3.817.007 7.284 1.62 9.049 4.209.03.045.047.096.047.148v6.845a.262.262 0 0 1-.047.147c-1.765 2.59-5.232 4.203-9.048 4.21-3.818-.007-7.285-1.62-9.05-4.21a.262.262 0 0 1-.047-.148V9.811c0-.052.017-.103.047-.148 1.765-2.59 5.232-4.202 9.049-4.21Z"/><path d="M9.631 10.464a.482.482 0 0 0 .331-.131c1.43-1.343 3.875-2.147 6.537-2.15 2.664.003 5.109.807 6.539 2.15a.483.483 0 1 0 .662-.705c-1.605-1.507-4.296-2.408-7.2-2.412-2.904.004-5.595.905-7.2 2.412a.483.483 0 0 0 .331.836Z"/></g><defs><clipPath id="a"><path fill="#fff" d="M0 0h33v33H0z"/></clipPath></defs></svg>