<svg width="23" height="22" fill="none" xmlns="http://www.w3.org/2000/svg"><g clip-path="url(#a)" fill="#fff"><path d="M8.488 9.014c-1.229 0-2.228 1.102-2.228 2.456 0 1.353 1 2.455 2.228 2.455 1.23 0 2.229-1.102 2.229-2.455 0-1.354-1-2.456-2.229-2.456Zm0 3.666c-.542 0-.983-.543-.983-1.21 0-.668.441-1.21.983-1.21.543 0 .984.542.984 1.21 0 .667-.441 1.21-.984 1.21Zm5.883-3.666c-1.229 0-2.228 1.102-2.228 2.456 0 1.353 1 2.455 2.228 2.455 1.229 0 2.229-1.102 2.229-2.455 0-1.354-1-2.456-2.229-2.456Zm0 3.666c-.542 0-.983-.543-.983-1.21 0-.668.44-1.21.983-1.21.543 0 .984.542.984 1.21 0 .667-.441 1.21-.984 1.21Z"/><path d="M22.054 15.632c-.015-.264-.387-6.49-2.752-10.214a.624.624 0 0 0-.188-.19C16.19 3.345 14.199 3.35 14.116 3.35a.623.623 0 0 0-.55.347L12.56 5.622a17.341 17.341 0 0 0-2.263 0L9.295 3.699a.623.623 0 0 0-.551-.349c-.084 0-2.075-.005-4.998 1.878a.623.623 0 0 0-.189.19C1.193 9.142.82 15.368.806 15.632a.623.623 0 0 0 .158.45c.11.122 2.714 2.984 6.314 2.984h.05a.623.623 0 0 0 .484-.237l1.66-2.108a17.26 17.26 0 0 0 3.915 0l1.66 2.108a.623.623 0 0 0 .485.237h.05c3.6 0 6.204-2.862 6.314-2.984a.623.623 0 0 0 .158-.45Zm-6.22 2.183-1.038-1.318c1.58-.325 3-.878 4.107-1.62a.623.623 0 0 0-.694-1.035c-1.653 1.11-4.124 1.745-6.78 1.745-2.655 0-5.126-.636-6.778-1.745a.623.623 0 0 0-.694 1.034c1.107.743 2.526 1.296 4.106 1.622l-1.038 1.317c-2.437-.113-4.377-1.818-4.957-2.383.097-1.207.599-6.182 2.468-9.232 1.836-1.158 3.221-1.48 3.84-1.57l.59 1.132c-1.388.202-2.689.575-3.797 1.097a.623.623 0 0 0 .53 1.126c1.583-.745 3.618-1.155 5.73-1.155 2.113 0 4.149.41 5.732 1.156a.62.62 0 0 0 .828-.298.623.623 0 0 0-.298-.829c-1.108-.522-2.41-.894-3.798-1.097l.59-1.132c.619.09 2.004.412 3.84 1.57 1.868 3.047 2.371 8.027 2.468 9.233-.578.567-2.509 2.27-4.957 2.382Z"/></g><defs><clipPath id="a"><path fill="#fff" transform="translate(.805 .583)" d="M0 0h21.25v21.25H0z"/></clipPath></defs></svg>