<svg width="18" height="18" fill="none" xmlns="http://www.w3.org/2000/svg"><g clip-path="url(#a)" fill="#D1C1EC"><path d="M6.508 7.142c-1.04 0-1.887.933-1.887 2.08 0 1.146.847 2.08 1.887 2.08 1.041 0 1.888-.934 1.888-2.08 0-1.147-.847-2.08-1.888-2.08Zm0 3.104c-.459 0-.833-.46-.833-1.024 0-.566.374-1.025.833-1.025.46 0 .834.46.834 1.025s-.374 1.024-.834 1.024Zm4.984-3.104c-1.041 0-1.888.933-1.888 2.08 0 1.146.847 2.08 1.888 2.08 1.04 0 1.887-.934 1.887-2.08 0-1.147-.846-2.08-1.887-2.08Zm0 3.104c-.46 0-.833-.46-.833-1.024 0-.566.373-1.025.833-1.025.459 0 .833.46.833 1.025s-.374 1.024-.833 1.024Z"/><path d="M18 12.747c-.013-.223-.328-5.497-2.331-8.652a.526.526 0 0 0-.16-.16c-2.476-1.595-4.163-1.59-4.234-1.591a.527.527 0 0 0-.466.294l-.85 1.63a14.683 14.683 0 0 0-1.917 0l-.85-1.629a.527.527 0 0 0-.467-.295c-.071 0-1.758-.004-4.234 1.59a.528.528 0 0 0-.16.161C.33 7.25.014 12.524.002 12.747c-.008.14.04.277.134.381.092.104 2.299 2.528 5.349 2.528h.04a.527.527 0 0 0 .411-.2l1.407-1.786a14.632 14.632 0 0 0 3.316 0l1.407 1.785a.528.528 0 0 0 .452.201c3.05 0 5.256-2.424 5.349-2.528a.528.528 0 0 0 .133-.381Zm-5.269 1.85-.88-1.117c1.34-.275 2.541-.744 3.479-1.373a.527.527 0 1 0-.588-.876c-1.4.94-3.493 1.478-5.742 1.478-2.25 0-4.342-.538-5.742-1.478a.527.527 0 1 0-.588.876c.938.63 2.14 1.098 3.479 1.373l-.88 1.117c-2.065-.096-3.708-1.54-4.199-2.02.082-1.021.507-5.236 2.09-7.819 1.556-.981 2.73-1.254 3.254-1.33l.5.958c-1.176.172-2.279.488-3.217.93a.527.527 0 0 0 .449.954C5.486 5.64 7.21 5.291 9 5.291s3.513.348 4.854.98a.525.525 0 0 0 .702-.253.527.527 0 0 0-.252-.702c-.94-.442-2.041-.758-3.218-.93l.5-.958c.525.076 1.698.349 3.253 1.33 1.582 2.58 2.008 6.8 2.09 7.82-.489.48-2.125 1.924-4.198 2.019Z"/></g><defs><clipPath id="a"><path fill="#fff" d="M0 0h18v18H0z"/></clipPath></defs></svg>