<svg width="57" height="55" fill="none" xmlns="http://www.w3.org/2000/svg"><path d="M30.4 11c-.752 0-1.486.215-2.111.618a3.699 3.699 0 0 0-1.4 1.646 3.548 3.548 0 0 0-.216 2.118 3.628 3.628 0 0 0 1.04 1.877 3.845 3.845 0 0 0 1.946 1.004 3.929 3.929 0 0 0 2.195-.209 3.775 3.775 0 0 0 1.706-1.35 3.58 3.58 0 0 0 .64-2.037c0-.973-.4-1.905-1.113-2.593A3.871 3.871 0 0 0 30.4 11Zm0 5.5a1.95 1.95 0 0 1-1.056-.309 1.85 1.85 0 0 1-.7-.823 1.774 1.774 0 0 1-.107-1.059c.073-.356.254-.682.52-.939.265-.256.604-.43.972-.501a1.96 1.96 0 0 1 1.098.104c.347.139.644.374.853.675a1.788 1.788 0 0 1-.236 2.315c-.357.344-.84.537-1.344.537Z" fill="url(#a)"/><path d="M38.95 15.583c-.564 0-1.115.162-1.583.464a2.775 2.775 0 0 0-1.05 1.234 2.66 2.66 0 0 0-.162 1.589c.11.533.381 1.023.78 1.408.398.385.906.646 1.459.753a2.947 2.947 0 0 0 1.647-.157 2.83 2.83 0 0 0 1.279-1.013c.313-.452.48-.984.48-1.528a2.7 2.7 0 0 0-.835-1.944 2.904 2.904 0 0 0-2.015-.806Zm0 3.667a.975.975 0 0 1-.528-.154.925.925 0 0 1-.35-.412.886.886 0 0 1-.054-.53.907.907 0 0 1 .26-.469.982.982 0 0 1 1.035-.199.95.95 0 0 1 .427.338.894.894 0 0 1-.118 1.157.968.968 0 0 1-.672.269Z" fill="url(#b)"/><path d="M38.95 25.667c0 .544.167 1.075.48 1.527a2.83 2.83 0 0 0 1.28 1.013c.52.209 1.093.263 1.646.157a2.883 2.883 0 0 0 1.46-.753c.398-.384.67-.874.78-1.408a2.66 2.66 0 0 0-.163-1.589 2.774 2.774 0 0 0-1.05-1.234 2.924 2.924 0 0 0-1.583-.463c-.756 0-1.48.29-2.015.805a2.702 2.702 0 0 0-.835 1.945Zm2.85-.917a.98.98 0 0 1 .528.154.927.927 0 0 1 .35.412.887.887 0 0 1-.206.999.981.981 0 0 1-1.035.199.943.943 0 0 1-.427-.338.894.894 0 0 1 .118-1.157.968.968 0 0 1 .672-.269Z" fill="url(#c)"/><path d="M54.15 0H2.85A2.912 2.912 0 0 0 .837.808 2.71 2.71 0 0 0 0 2.75v44a2.71 2.71 0 0 0 .837 1.942 2.912 2.912 0 0 0 2.013.808h18.173l-2.811 4.08a.862.862 0 0 0-.048.934c.08.148.2.271.347.357A.96.96 0 0 0 19 55h19a.96.96 0 0 0 .489-.13.915.915 0 0 0 .347-.356.858.858 0 0 0-.047-.935L35.975 49.5H54.15a2.912 2.912 0 0 0 2.013-.808A2.71 2.71 0 0 0 57 46.75v-44a2.71 2.71 0 0 0-.837-1.942A2.912 2.912 0 0 0 54.15 0ZM36.224 53.167H20.777l2.536-3.667h10.374l2.537 3.667ZM55.1 46.75a.9.9 0 0 1-.278.648.968.968 0 0 1-.672.269H2.85a.968.968 0 0 1-.672-.269.9.9 0 0 1-.278-.648V44h53.2v2.75Zm0-4.583H1.9V2.75a.9.9 0 0 1 .278-.648.968.968 0 0 1 .672-.269h51.3c.252 0 .494.097.672.269a.9.9 0 0 1 .278.648v39.417Z" fill="url(#d)"/><path d="m32.614 32.542-10.45-17.463a.929.929 0 0 0-.245-.271.966.966 0 0 0-.335-.16.993.993 0 0 0-.722.092l-3.287 1.833a.93.93 0 0 0-.443.559.897.897 0 0 0 .091.697l10.45 17.463a1 1 0 0 0 .58.43c.081.019.164.028.247.028.166-.003.329-.044.475-.12l3.287-1.833a.94.94 0 0 0 .281-.235.902.902 0 0 0 .19-.68.895.895 0 0 0-.12-.34Zm-3.762 1.035-9.5-15.876 1.643-.917 9.5 15.877-1.643.916Z" fill="url(#e)"/><path d="m20.14 9.854-.902-1.503a4.69 4.69 0 0 0-1.805-1.714l-3.924-2.1a.977.977 0 0 0-.94.01.948.948 0 0 0-.343.33.905.905 0 0 0-.133.449l-.075 4.326c-.012.83.208 1.647.636 2.366l.902 1.503a2.845 2.845 0 0 0 1.732 1.28c.73.19 1.508.092 2.163-.272l1.644-.916c.325-.18.609-.421.837-.708a2.72 2.72 0 0 0 .493-.963 2.655 2.655 0 0 0-.285-2.088Zm-1.558 1.614a.88.88 0 0 1-.16.322.915.915 0 0 1-.277.237l-1.643.916a.99.99 0 0 1-.723.088.955.955 0 0 1-.579-.427l-.902-1.503a2.665 2.665 0 0 1-.38-1.421l.047-2.796 2.546 1.357c.45.24.825.596 1.083 1.026l.893 1.504a.863.863 0 0 1 .095.696Z" fill="url(#f)"/><path d="M25.016 9.137a16.706 16.706 0 0 1 10.442-.104c3.396 1.082 6.324 3.222 8.324 6.082 2 2.861 2.96 6.282 2.729 9.726-.232 3.444-1.642 6.716-4.009 9.303a5.518 5.518 0 0 0-2.062-2.813 5.85 5.85 0 0 0-3.39-1.081.968.968 0 0 0-.672.268.9.9 0 0 0-.278.649.9.9 0 0 0 .278.648c.178.172.42.268.672.268a3.87 3.87 0 0 1 2.687 1.074 3.602 3.602 0 0 1 1.113 2.593c0 .087-.006.174-.019.26a.889.889 0 0 0 .09.545.933.933 0 0 0 .398.395.98.98 0 0 0 1.082-.12c3.122-2.685 5.18-6.333 5.825-10.32a16.906 16.906 0 0 0-2.295-11.54c-2.127-3.475-5.44-6.129-9.37-7.508a18.668 18.668 0 0 0-12.177-.057.94.94 0 0 0-.541.469.888.888 0 0 0-.04.7.93.93 0 0 0 .487.523.982.982 0 0 0 .726.038v.002Z" fill="url(#g)"/><path d="M23.046 33.031a11.571 11.571 0 0 1-3.99-1.898 11.13 11.13 0 0 1-2.934-3.228 10.74 10.74 0 0 1-1.43-4.065 10.625 10.625 0 0 1 .292-4.284.885.885 0 0 0-.081-.709.926.926 0 0 0-.246-.276.963.963 0 0 0-.713-.184.973.973 0 0 0-.635.364.904.904 0 0 0-.16.33 12.454 12.454 0 0 0 1.335 9.736c1.763 2.947 4.666 5.098 8.07 5.982a.97.97 0 0 0 .871-.194.891.891 0 0 0 .163-1.198.947.947 0 0 0-.542-.376Z" fill="url(#h)"/><defs><linearGradient id="a" x1="28.5" y1="0" x2="28.5" y2="55" gradientUnits="userSpaceOnUse"><stop stop-color="#36B1FF"/><stop offset="1" stop-color="#8843FB"/></linearGradient><linearGradient id="b" x1="28.5" y1="0" x2="28.5" y2="55" gradientUnits="userSpaceOnUse"><stop stop-color="#36B1FF"/><stop offset="1" stop-color="#8843FB"/></linearGradient><linearGradient id="c" x1="28.5" y1="0" x2="28.5" y2="55" gradientUnits="userSpaceOnUse"><stop stop-color="#36B1FF"/><stop offset="1" stop-color="#8843FB"/></linearGradient><linearGradient id="d" x1="28.5" y1="0" x2="28.5" y2="55" gradientUnits="userSpaceOnUse"><stop stop-color="#36B1FF"/><stop offset="1" stop-color="#8843FB"/></linearGradient><linearGradient id="e" x1="28.5" y1="0" x2="28.5" y2="55" gradientUnits="userSpaceOnUse"><stop stop-color="#36B1FF"/><stop offset="1" stop-color="#8843FB"/></linearGradient><linearGradient id="f" x1="28.5" y1="0" x2="28.5" y2="55" gradientUnits="userSpaceOnUse"><stop stop-color="#36B1FF"/><stop offset="1" stop-color="#8843FB"/></linearGradient><linearGradient id="g" x1="28.5" y1="0" x2="28.5" y2="55" gradientUnits="userSpaceOnUse"><stop stop-color="#36B1FF"/><stop offset="1" stop-color="#8843FB"/></linearGradient><linearGradient id="h" x1="28.5" y1="0" x2="28.5" y2="55" gradientUnits="userSpaceOnUse"><stop stop-color="#36B1FF"/><stop offset="1" stop-color="#8843FB"/></linearGradient></defs></svg>