<svg width="60" height="37" fill="none" xmlns="http://www.w3.org/2000/svg"><path d="M10.641 5.15V3.434H5.364v8.6h5.277V10.31H7.123V8.59h1.76V6.869h-1.76V5.15h3.518Z" fill="url(#a)"/><path d="M17.92 12.033h2.088L17.196 7.73l2.82-4.297h-2.09l-1.774 2.7-1.775-2.7H12.29l2.82 4.297-2.813 4.303h2.089l1.767-2.706 1.768 2.706Z" fill="url(#b)"/><path d="M24.719 5.14h1.762V3.433h-1.762c-2.429 0-4.405 1.92-4.405 4.297 0 2.292 2.03 4.303 4.413 4.303h1.754V10.31h-1.757c-1.415 0-2.65-1.188-2.65-2.58 0-1.427 1.186-2.59 2.645-2.59Z" fill="url(#c)"/><path d="M28.26 3.433v8.6h5.245V10.31H30.02V3.433h-1.76Z" fill="url(#d)"/><path d="M35.26 3.433v5.153c0 1.9 1.58 3.447 3.521 3.447 1.942 0 3.522-1.546 3.522-3.447V3.433h-1.76v5.153c0 .951-.79 1.725-1.762 1.725-.971 0-1.762-.774-1.762-1.725V3.433H35.26Z" fill="url(#e)"/><path d="M8.907 20.64H5.363v1.722H8.91c3.473-.088 3.429-5.038-.01-5.128h-.896c-1.136-.02-1.137-1.682 0-1.701h3.517V13.76H8.005c-3.459.09-3.46 5.103-.002 5.195l.897.001c1.12.018 1.16 1.678.007 1.684Z" fill="url(#f)"/><path d="M13.28 13.76h1.758v8.602H13.28V13.76Z" fill="url(#g)"/><path d="M27.35 22.362h5.277V20.64h-3.519v-1.718h1.76V17.2h-1.76v-1.718h3.519V13.76h-5.278v8.602Z" fill="url(#h)"/><path d="m21.891 22.362 3.74-8.602h-1.913l-2.536 5.843-2.537-5.843H16.73l3.741 8.602h1.419Z" fill="url(#i)"/><path d="M44.058 6.869h5.275V8.59h-5.275V6.869Z" fill="url(#j)"/><path d="M0 0v25.812h18.554v-1.721H1.76V1.72h56.48v16.941a12.217 12.217 0 0 0-2.725-3.103l-1.122 1.327c2.445 1.982 3.847 4.9 3.847 8.004 0 5.728-4.76 10.388-10.611 10.388-5.851 0-10.611-4.66-10.611-10.388s4.76-10.388 10.611-10.388c1.866 0 3.701.48 5.306 1.39l.881-1.49a12.57 12.57 0 0 0-6.187-1.622c-6.546 0-11.92 5.005-12.342 11.31H23.83v1.722h11.466C35.779 32.061 41.126 37 47.63 37c6.8 0 12.335-5.4 12.369-12.049V0H0Z" fill="url(#k)"/><path d="M20.314 24.09h1.758v1.722h-1.758V24.09Z" fill="url(#l)"/><path d="m45.384 23.46-3.073-2.742v8.53h10.553v-8.534l-3.083 2.76-2.203-1.972-2.194 1.958Zm5.721 1.16v2.906H44.07v-2.909l1.314 1.173 2.192-1.957 2.205 1.973 1.324-1.185Z" fill="url(#m)"/><path d="M38.775 24.087h1.759v1.722h-1.759v-1.722Z" fill="url(#n)"/><path d="M54.611 24.087h1.76v1.722h-1.76v-1.722Z" fill="url(#o)"/><defs><linearGradient id="a" x1="30" y1="0" x2="30" y2="37" gradientUnits="userSpaceOnUse"><stop stop-color="#20BFF0"/><stop offset="1" stop-color="#7C35F7"/></linearGradient><linearGradient id="b" x1="30" y1="0" x2="30" y2="37" gradientUnits="userSpaceOnUse"><stop stop-color="#20BFF0"/><stop offset="1" stop-color="#7C35F7"/></linearGradient><linearGradient id="c" x1="30" y1="0" x2="30" y2="37" gradientUnits="userSpaceOnUse"><stop stop-color="#20BFF0"/><stop offset="1" stop-color="#7C35F7"/></linearGradient><linearGradient id="d" x1="30" y1="0" x2="30" y2="37" gradientUnits="userSpaceOnUse"><stop stop-color="#20BFF0"/><stop offset="1" stop-color="#7C35F7"/></linearGradient><linearGradient id="e" x1="30" y1="0" x2="30" y2="37" gradientUnits="userSpaceOnUse"><stop stop-color="#20BFF0"/><stop offset="1" stop-color="#7C35F7"/></linearGradient><linearGradient id="f" x1="30" y1="0" x2="30" y2="37" gradientUnits="userSpaceOnUse"><stop stop-color="#20BFF0"/><stop offset="1" stop-color="#7C35F7"/></linearGradient><linearGradient id="g" x1="30" y1="0" x2="30" y2="37" gradientUnits="userSpaceOnUse"><stop stop-color="#20BFF0"/><stop offset="1" stop-color="#7C35F7"/></linearGradient><linearGradient id="h" x1="30" y1="0" x2="30" y2="37" gradientUnits="userSpaceOnUse"><stop stop-color="#20BFF0"/><stop offset="1" stop-color="#7C35F7"/></linearGradient><linearGradient id="i" x1="30" y1="0" x2="30" y2="37" gradientUnits="userSpaceOnUse"><stop stop-color="#20BFF0"/><stop offset="1" stop-color="#7C35F7"/></linearGradient><linearGradient id="j" x1="30" y1="0" x2="30" y2="37" gradientUnits="userSpaceOnUse"><stop stop-color="#20BFF0"/><stop offset="1" stop-color="#7C35F7"/></linearGradient><linearGradient id="k" x1="30" y1="0" x2="30" y2="37" gradientUnits="userSpaceOnUse"><stop stop-color="#20BFF0"/><stop offset="1" stop-color="#7C35F7"/></linearGradient><linearGradient id="l" x1="30" y1="0" x2="30" y2="37" gradientUnits="userSpaceOnUse"><stop stop-color="#20BFF0"/><stop offset="1" stop-color="#7C35F7"/></linearGradient><linearGradient id="m" x1="30" y1="0" x2="30" y2="37" gradientUnits="userSpaceOnUse"><stop stop-color="#20BFF0"/><stop offset="1" stop-color="#7C35F7"/></linearGradient><linearGradient id="n" x1="30" y1="0" x2="30" y2="37" gradientUnits="userSpaceOnUse"><stop stop-color="#20BFF0"/><stop offset="1" stop-color="#7C35F7"/></linearGradient><linearGradient id="o" x1="30" y1="0" x2="30" y2="37" gradientUnits="userSpaceOnUse"><stop stop-color="#20BFF0"/><stop offset="1" stop-color="#7C35F7"/></linearGradient></defs></svg>