<svg width="13" height="13" viewBox="0 0 13 13" fill="none" xmlns="http://www.w3.org/2000/svg">
<g clip-path="url(#clip0)">
<path d="M8.42399 0.490234H4.17399C2.21828 0.490234 0.632324 2.07619 0.632324 4.0319V8.2819C0.632324 10.2376 2.21828 11.8236 4.17399 11.8236H8.42399C10.3797 11.8236 11.9657 10.2376 11.9657 8.2819V4.0319C11.9657 2.07619 10.3797 0.490234 8.42399 0.490234ZM10.9032 8.2819C10.9032 9.64898 9.79107 10.7611 8.42399 10.7611H4.17399C2.80691 10.7611 1.69482 9.64898 1.69482 8.2819V4.0319C1.69482 2.66482 2.80691 1.55273 4.17399 1.55273H8.42399C9.79107 1.55273 10.9032 2.66482 10.9032 4.0319V8.2819Z" fill="#D1C1EC"/>
<path d="M6.20807 3.10645C4.55132 3.10645 3.20807 4.4497 3.20807 6.10645C3.20807 7.7632 4.55132 9.10644 6.20807 9.10644C7.86482 9.10644 9.20807 7.7632 9.20807 6.10645C9.20807 4.4497 7.86482 3.10645 6.20807 3.10645ZM6.20807 7.98144C5.17457 7.98144 4.33307 7.13995 4.33307 6.10645C4.33307 5.0722 5.17457 4.23145 6.20807 4.23145C7.24157 4.23145 8.08307 5.0722 8.08307 6.10645C8.08307 7.13995 7.24157 7.98144 6.20807 7.98144Z" fill="#D1C1EC"/>
<path d="M9.43307 3.28119C9.65385 3.28119 9.83282 3.10221 9.83282 2.88144C9.83282 2.66066 9.65385 2.48169 9.43307 2.48169C9.2123 2.48169 9.03333 2.66066 9.03333 2.88144C9.03333 3.10221 9.2123 3.28119 9.43307 3.28119Z" fill="#D1C1EC"/>
</g>
<defs>
<clipPath id="clip0">
<rect width="12" height="12" fill="white" transform="translate(0.208069 0.106445)"/>
</clipPath>
</defs>
</svg>
