<svg width="13" height="13" fill="none" xmlns="http://www.w3.org/2000/svg"><g clip-path="url(#a)" fill="#D1C1EC"><path d="M8.424.49h-4.25A3.542 3.542 0 0 0 .632 4.032v4.25a3.542 3.542 0 0 0 3.542 3.542h4.25a3.542 3.542 0 0 0 3.542-3.542v-4.25A3.542 3.542 0 0 0 8.424.49Zm2.48 7.792a2.482 2.482 0 0 1-2.48 2.48h-4.25a2.482 2.482 0 0 1-2.48-2.48v-4.25a2.482 2.482 0 0 1 2.48-2.48h4.25a2.482 2.482 0 0 1 2.48 2.48v4.25Z"/><path d="M6.208 3.106a3 3 0 1 0 0 6 3 3 0 0 0 0-6Zm0 4.875a1.878 1.878 0 0 1-1.875-1.875c0-1.034.842-1.875 1.875-1.875 1.034 0 1.875.841 1.875 1.875a1.878 1.878 0 0 1-1.875 1.875Zm3.225-4.7a.4.4 0 1 0 0-.8.4.4 0 0 0 0 .8Z"/></g><defs><clipPath id="a"><path fill="#fff" transform="translate(.208 .106)" d="M0 0h12v12H0z"/></clipPath></defs></svg>