<svg width="18" height="18" fill="none" xmlns="http://www.w3.org/2000/svg"><g clip-path="url(#a)" fill="#fff"><path d="M11.767.786H5.746A5.018 5.018 0 0 0 .729 5.803v6.021a5.018 5.018 0 0 0 5.017 5.018h6.02a5.018 5.018 0 0 0 5.018-5.018v-6.02A5.018 5.018 0 0 0 11.767.785Zm3.512 11.038a3.516 3.516 0 0 1-3.512 3.512H5.746a3.516 3.516 0 0 1-3.512-3.512v-6.02A3.516 3.516 0 0 1 5.746 2.29h6.02a3.516 3.516 0 0 1 3.513 3.512v6.021Z"/><path d="M8.627 4.492a4.25 4.25 0 1 0 0 8.5 4.25 4.25 0 0 0 0-8.5Zm0 6.907a2.66 2.66 0 0 1-2.656-2.657 2.66 2.66 0 0 1 2.656-2.656 2.66 2.66 0 0 1 2.657 2.656A2.66 2.66 0 0 1 8.627 11.4Zm4.569-6.659a.566.566 0 1 0 0-1.133.566.566 0 0 0 0 1.133Z"/></g><defs><clipPath id="a"><path fill="#fff" transform="translate(.128 .242)" d="M0 0h17v17H0z"/></clipPath></defs></svg>