<svg width="46" height="46" fill="none" xmlns="http://www.w3.org/2000/svg"><path d="M26.59.478a.75.75 0 0 0-.23 1.483c10.284 1.6 17.748 10.334 17.748 20.77 0 11.59-9.42 21.019-21 21.019-11.579 0-21-9.43-21-21.02 0-11.084 8.648-20.3 19.687-20.979a.75.75 0 0 0-.092-1.498C9.874.98.608 10.854.608 22.73c0 12.447 10.064 22.521 22.5 22.521 12.509 0 22.5-10.154 22.5-22.52 0-11.201-8.2-20.57-19.018-22.253Z" fill="url(#a)"/><path d="M22.851 40.087a.75.75 0 1 0-.023 1.501c.37.006.73 0 1.073-.014a.75.75 0 0 0-.061-1.5 17.66 17.66 0 0 1-.989.013Z" fill="url(#b)"/><path d="M15.325 38.247a.75.75 0 1 0-.674 1.342c.318.16.644.313.97.454a.75.75 0 1 0 .597-1.378c-.3-.13-.6-.27-.893-.418Z" fill="url(#c)"/><path d="M14.75 7.415c.287 0 .3-.096 1.235-.518a.751.751 0 0 0-.617-1.369c-.325.147-.65.305-.967.47a.75.75 0 0 0 .348 1.417Z" fill="url(#d)"/><path d="M21.824 4.647a.75.75 0 0 0 .77.73c.328-.01.659-.01.99-.001a.75.75 0 0 0 .041-1.5c-.36-.01-.718-.01-1.073 0a.75.75 0 0 0-.728.771Z" fill="url(#e)"/><path d="M31.314 38.027c-.29.156-.587.305-.884.444a.751.751 0 0 0 .634 1.36c.323-.15.646-.313.96-.482a.751.751 0 0 0-.71-1.322Z" fill="url(#f)"/><path d="M30.697 7.114a.75.75 0 1 0 .657-1.35 18.64 18.64 0 0 0-.976-.441.75.75 0 1 0-.58 1.385c.303.126.605.263.9.406Z" fill="url(#g)"/><path d="M40.184 25.784c-.057.324-.125.65-.2.969a.75.75 0 0 0 1.46.346c.081-.347.155-.7.217-1.052a.75.75 0 0 0-1.477-.263Z" fill="url(#h)"/><path d="M37.22 10.23a.75.75 0 1 0-1.123.995c.218.247.431.502.634.76a.749.749 0 0 0 .59.285c.618 0 .979-.72.588-1.215-.22-.28-.452-.557-.688-.825Z" fill="url(#i)"/><path d="M37.15 32.92c-.191.266-.394.53-.602.784a.751.751 0 0 0 1.161.95c.226-.277.447-.563.655-.85a.75.75 0 0 0-1.213-.883Z" fill="url(#j)"/><path d="M41.255 17.629a.75.75 0 1 0-1.444.405c.089.317.17.64.24.96a.75.75 0 1 0 1.465-.322 19.37 19.37 0 0 0-.26-1.043Z" fill="url(#k)"/><path d="M8.84 35.05a.75.75 0 1 0 1.136-.981 17.665 17.665 0 0 1-.624-.767.75.75 0 1 0-1.19.915c.218.283.446.563.679.833Z" fill="url(#l)"/><path d="M5.336 20.07a.75.75 0 0 0 .736-.61c.062-.323.133-.648.213-.966a.75.75 0 0 0-1.455-.365c-.087.346-.165.699-.231 1.05a.75.75 0 0 0 .737.891Z" fill="url(#m)"/><path d="M4.9 27.6a.75.75 0 1 0 1.448-.386 17.27 17.27 0 0 1-.227-.962.75.75 0 1 0-1.469.303c.072.35.155.702.247 1.046Z" fill="url(#n)"/><path d="M8.593 12.664a.749.749 0 0 0 .602-.302c.196-.263.402-.524.613-.775a.751.751 0 0 0-1.15-.965c-.228.273-.452.556-.665.842a.752.752 0 0 0 .6 1.2Z" fill="url(#o)"/><path d="M14.41 12.197 11.597 16.7a.751.751 0 0 0 1.273.796l2.592-4.152H32.63l-1.875 3.003H16.622a.75.75 0 0 0 0 1.502H31.17a.75.75 0 0 0 .636-.353l2.813-4.504a.751.751 0 0 0-.636-1.149H15.046a.75.75 0 0 0-.636.353Z" fill="url(#p)"/><path d="m34.62 24.583-2.813-4.504a.75.75 0 1 0-1.272.796l2.095 3.355H15.462l-1.875-3.002h13.341a.75.75 0 0 0 0-1.502H12.233a.751.751 0 0 0-.636 1.149l2.813 4.504a.75.75 0 0 0 .636.353h18.937a.751.751 0 0 0 .636-1.149Z" fill="url(#q)"/><path d="M33.983 27.609H15.046a.75.75 0 0 0-.636.352l-2.813 4.505a.751.751 0 0 0 .636 1.148h14.889a.75.75 0 0 0 0-1.501H13.587l1.875-3.003H32.63l-2.095 3.356a.751.751 0 0 0 1.272.795l2.813-4.504a.751.751 0 0 0-.636-1.148Z" fill="url(#r)"/><defs><linearGradient id="a" x1="23.108" y1=".251" x2="23.108" y2="45.251" gradientUnits="userSpaceOnUse"><stop stop-color="#18C7EE"/><stop offset="1" stop-color="#8843FB"/></linearGradient><linearGradient id="b" x1="23.108" y1=".251" x2="23.108" y2="45.251" gradientUnits="userSpaceOnUse"><stop stop-color="#18C7EE"/><stop offset="1" stop-color="#8843FB"/></linearGradient><linearGradient id="c" x1="23.108" y1=".251" x2="23.108" y2="45.251" gradientUnits="userSpaceOnUse"><stop stop-color="#18C7EE"/><stop offset="1" stop-color="#8843FB"/></linearGradient><linearGradient id="d" x1="23.108" y1=".251" x2="23.108" y2="45.251" gradientUnits="userSpaceOnUse"><stop stop-color="#18C7EE"/><stop offset="1" stop-color="#8843FB"/></linearGradient><linearGradient id="e" x1="23.108" y1=".251" x2="23.108" y2="45.251" gradientUnits="userSpaceOnUse"><stop stop-color="#18C7EE"/><stop offset="1" stop-color="#8843FB"/></linearGradient><linearGradient id="f" x1="23.108" y1=".251" x2="23.108" y2="45.251" gradientUnits="userSpaceOnUse"><stop stop-color="#18C7EE"/><stop offset="1" stop-color="#8843FB"/></linearGradient><linearGradient id="g" x1="23.108" y1=".251" x2="23.108" y2="45.251" gradientUnits="userSpaceOnUse"><stop stop-color="#18C7EE"/><stop offset="1" stop-color="#8843FB"/></linearGradient><linearGradient id="h" x1="23.108" y1=".251" x2="23.108" y2="45.251" gradientUnits="userSpaceOnUse"><stop stop-color="#18C7EE"/><stop offset="1" stop-color="#8843FB"/></linearGradient><linearGradient id="i" x1="23.108" y1=".251" x2="23.108" y2="45.251" gradientUnits="userSpaceOnUse"><stop stop-color="#18C7EE"/><stop offset="1" stop-color="#8843FB"/></linearGradient><linearGradient id="j" x1="23.108" y1=".251" x2="23.108" y2="45.251" gradientUnits="userSpaceOnUse"><stop stop-color="#18C7EE"/><stop offset="1" stop-color="#8843FB"/></linearGradient><linearGradient id="k" x1="23.108" y1=".251" x2="23.108" y2="45.251" gradientUnits="userSpaceOnUse"><stop stop-color="#18C7EE"/><stop offset="1" stop-color="#8843FB"/></linearGradient><linearGradient id="l" x1="23.108" y1=".251" x2="23.108" y2="45.251" gradientUnits="userSpaceOnUse"><stop stop-color="#18C7EE"/><stop offset="1" stop-color="#8843FB"/></linearGradient><linearGradient id="m" x1="23.108" y1=".251" x2="23.108" y2="45.251" gradientUnits="userSpaceOnUse"><stop stop-color="#18C7EE"/><stop offset="1" stop-color="#8843FB"/></linearGradient><linearGradient id="n" x1="23.108" y1=".251" x2="23.108" y2="45.251" gradientUnits="userSpaceOnUse"><stop stop-color="#18C7EE"/><stop offset="1" stop-color="#8843FB"/></linearGradient><linearGradient id="o" x1="23.108" y1=".251" x2="23.108" y2="45.251" gradientUnits="userSpaceOnUse"><stop stop-color="#18C7EE"/><stop offset="1" stop-color="#8843FB"/></linearGradient><linearGradient id="p" x1="23.108" y1=".251" x2="23.108" y2="45.251" gradientUnits="userSpaceOnUse"><stop stop-color="#18C7EE"/><stop offset="1" stop-color="#8843FB"/></linearGradient><linearGradient id="q" x1="23.108" y1=".251" x2="23.108" y2="45.251" gradientUnits="userSpaceOnUse"><stop stop-color="#18C7EE"/><stop offset="1" stop-color="#8843FB"/></linearGradient><linearGradient id="r" x1="23.108" y1=".251" x2="23.108" y2="45.251" gradientUnits="userSpaceOnUse"><stop stop-color="#18C7EE"/><stop offset="1" stop-color="#8843FB"/></linearGradient></defs></svg>