<svg width="45" height="45" fill="none" xmlns="http://www.w3.org/2000/svg"><path d="M43.409 26.597h-.347l1.264-1.265c.453-.451.378-1.145-.034-1.583l.491-.491c.603-.602-.329-1.535-.931-.932l-.491.49c-.432-.441-1.133-.49-1.584-.04l-.84.84V8.221a2.737 2.737 0 0 0-2.736-2.731h-15.83l-.75-1.322c.83.06.987-.718.89-1.383h9.975a2.13 2.13 0 0 0 2.023 1.468 2.13 2.13 0 0 0 2.127-2.127A2.13 2.13 0 0 0 34.51 0a2.13 2.13 0 0 0-2.023 1.468h-9.975c.071-.483.026-1.383-.66-1.383h-2.766c-.676 0-.727.888-.659 1.383H8.451A2.131 2.131 0 0 0 6.428 0a2.13 2.13 0 0 0-2.127 2.127 2.13 2.13 0 0 0 2.127 2.127 2.13 2.13 0 0 0 2.023-1.468h9.975c-.097.665.06 1.443.89 1.383l-.75 1.322H2.736A2.737 2.737 0 0 0 0 8.222V27.88a2.737 2.737 0 0 0 2.736 2.73h13.679l-.432 4.143h-.844a3.086 3.086 0 0 0-3.083 3.083c0 .364.295.659.659.659h7.81v4.915c0 .877.713 1.591 1.59 1.591H43.41c.877 0 1.59-.714 1.59-1.59V28.187c0-.878-.713-1.591-1.59-1.591Zm-.86-2.729.687.69-8.144 8.147-.687-.69 8.144-8.147Zm-8.997 9.16.527.528c-.264.16-.597.328-.953.422.096-.356.265-.688.426-.95Zm4.65-26.219c.781 0 1.417.634 1.417 1.413V23.85H25.463c0-1.702.015-2.484.015-3.688 0-.483-.222-.916-.569-1.202l2.772-3.247a.659.659 0 0 0 .071-.754l-4.631-8.15H38.2ZM16.93 23.85a.213.213 0 0 1-.152-.203v-3.485c0-.196.22-.261.376-.24h6.63c.155-.021.375.044.375.24v3.485a.213.213 0 0 1-.152.203H16.93Zm2.88-17.88v6.16a2.147 2.147 0 0 0-1.484 2.04c0 1.181.961 2.143 2.142 2.143a2.146 2.146 0 0 0 2.143-2.144c0-.952-.623-1.76-1.483-2.04V5.972l5.25 9.238-2.899 3.395h-6.021l-2.899-3.395 5.25-9.238Zm.659 7.374a.826.826 0 0 1 0 1.65.826.826 0 0 1 0-1.65Zm14.04-12.026a.81.81 0 0 1 0 1.618.81.81 0 0 1 0-1.618Zm-14.765.086h1.449V2.85h-1.449V1.404ZM6.428 2.936a.81.81 0 1 1 .002-1.62.81.81 0 0 1-.002 1.62ZM2.736 6.809h15.08l-4.631 8.15a.659.659 0 0 0 .072.754l2.77 3.247a1.555 1.555 0 0 0-.568 1.202c0 1.204.016 2.323.016 3.688H1.318V8.222c0-.779.636-1.413 1.418-1.413ZM1.318 27.88v-2.71h15.503c.056.005.113.01.17.01h6.955c.057 0 .114-.005.17-.01h15.269l-1.428 1.428H22.115c-.877 0-1.59.713-1.59 1.59v1.105H2.735a1.417 1.417 0 0 1-1.417-1.413Zm16.422 2.73h2.785v4.142h-3.216l.431-4.142Zm-4.238 6.566a1.767 1.767 0 0 1 1.637-1.106h5.386v1.106h-7.023Zm8.34 6.233V28.188c0-.15.123-.273.273-.273h3.274v15.767h-3.274a.273.273 0 0 1-.272-.273Zm21.84 0c0 .15-.123.273-.273.273H26.707V27.915h9.932l-3.632 3.634c-.723.723-1.263 1.93-1.278 2.945-.005.382.494.88.877.88 1.029-.01 2.223-.54 2.952-1.27l6.187-6.189h1.664c.15 0 .273.122.273.273v15.221Z" fill="url(#a)"/><path d="M23.562 39.079a.66.66 0 0 0-.66.66v1.715c0 .852 1.32.852 1.32 0v-1.716a.66.66 0 0 0-.66-.66Z" fill="url(#b)"/><path d="M23.562 37.792c.848 0 .85-1.318 0-1.318-.848 0-.85 1.318 0 1.318Z" fill="url(#c)"/><path d="M23.562 33.805c-.848 0-.85 1.318 0 1.318.848 0 .85-1.318 0-1.318Z" fill="url(#d)"/><path d="M23.562 29.484a.66.66 0 0 0-.66.66v1.715c0 .852 1.32.852 1.32 0v-1.716a.66.66 0 0 0-.66-.659Z" fill="url(#e)"/><defs><linearGradient id="a" x1="22.5" y1="0" x2="22.5" y2="45" gradientUnits="userSpaceOnUse"><stop stop-color="#24BAF1"/><stop offset="1" stop-color="#7B39F7"/></linearGradient><linearGradient id="b" x1="22.5" y1="0" x2="22.5" y2="45" gradientUnits="userSpaceOnUse"><stop stop-color="#24BAF1"/><stop offset="1" stop-color="#7B39F7"/></linearGradient><linearGradient id="c" x1="22.5" y1="0" x2="22.5" y2="45" gradientUnits="userSpaceOnUse"><stop stop-color="#24BAF1"/><stop offset="1" stop-color="#7B39F7"/></linearGradient><linearGradient id="d" x1="22.5" y1="0" x2="22.5" y2="45" gradientUnits="userSpaceOnUse"><stop stop-color="#24BAF1"/><stop offset="1" stop-color="#7B39F7"/></linearGradient><linearGradient id="e" x1="22.5" y1="0" x2="22.5" y2="45" gradientUnits="userSpaceOnUse"><stop stop-color="#24BAF1"/><stop offset="1" stop-color="#7B39F7"/></linearGradient></defs></svg>