<svg width="64" height="54" fill="none" xmlns="http://www.w3.org/2000/svg"><path d="M53.188 0c-4.89 0-8.754 3.944-8.754 8.858 0 4.915 3.924 8.798 8.754 8.798s8.814-3.944 8.814-8.858C62.002 3.883 58.078 0 53.188 0Zm0 15.715c-3.804 0-6.883-3.095-6.883-6.917 0-3.823 3.14-6.856 6.883-6.856 3.803 0 6.882 3.094 6.882 6.916 0 3.823-3.079 6.857-6.882 6.857Z" fill="url(#a)"/><path d="M55.965 10.193c-.06-.182-.06-.303-.181-.485-.06-.121-.121-.303-.242-.425-.12-.121-.18-.242-.302-.364-.12-.121-.241-.243-.422-.303-.121-.122-.302-.182-.423-.243-.181-.06-.302-.182-.483-.243-.181-.06-.362-.12-.483-.182a.456.456 0 0 1-.241-.121c-.06-.06-.181-.06-.242-.121-.06-.061-.18-.061-.241-.122l-.181-.182c-.06-.06-.121-.121-.121-.242-.06-.061-.06-.182-.06-.243v-.303c0-.061.06-.182.06-.243.06-.06.06-.182.12-.243l.182-.182a.46.46 0 0 1 .302-.121c.12-.06.18-.06.301-.06h.363c.12 0 .18 0 .301.06.121 0 .242.06.302.06s.181.061.242.061c.12 0 .181.06.241.06l.302.122.06-.364.121-.97V4.55L55 4.49c-.06 0-.181-.06-.242-.06-.06 0-.12-.061-.241-.061-.06 0-.181-.061-.302-.061-.12 0-.181-.06-.302-.06h-.06V3.093h-1.45v1.214h-.06c-.18.06-.362.121-.543.243-.181.06-.302.182-.422.303a2.626 2.626 0 0 0-.363.425c-.12.121-.18.303-.241.485l-.181.546c-.06.182-.06.425-.06.607s0 .303.06.485.06.304.18.486c.061.121.182.303.242.424.121.122.181.243.302.364.12.122.242.243.423.304.12.121.302.182.422.243.181.06.363.182.483.242.181.06.363.122.483.182.06 0 .181.06.242.122.06.06.18.06.241.121.06.06.121.121.181.121l.181.182c.06.061.06.122.121.243 0 .06.06.182.06.303v.304a.46.46 0 0 1-.12.243l-.181.181a.835.835 0 0 1-.242.182c-.06.061-.18.061-.241.122-.06 0-.181.06-.302.06h-.786c-.12 0-.241-.06-.302-.06-.12 0-.241-.06-.362-.122-.12-.06-.242-.06-.362-.12-.06 0-.121-.062-.181-.062s-.121-.06-.181-.06l-.363-.182-.06.425-.12 1.092v.182l.18.06c.242-.06.363 0 .544.061.12.06.301.121.422.121.121.061.302.061.483.122.181.06.302.06.483.06h.121v1.214h1.449v-1.274h.06c.181-.061.362-.122.544-.243.18-.06.301-.182.483-.303.12-.122.241-.243.362-.425.12-.121.18-.303.302-.486l.18-.545c.061-.183.061-.365.061-.607 0-.182 0-.304-.06-.486Z" fill="url(#b)"/><path d="M48.962 18.809c-.302-.425-.966-.485-1.389-.182l-9.78 7.827-12.618-5.279a.96.96 0 0 0-.905.122l-13.524 9.708c-.422.303-.543.91-.241 1.334.18.304.483.425.784.425a.97.97 0 0 0 .544-.182l13.1-9.404 12.679 5.278c.302.122.724.06.966-.121l10.203-8.13c.422-.304.483-.971.18-1.396Z" fill="url(#c)"/><path d="M63.089 52.058H58.62V23.966a.956.956 0 0 0-.966-.97H48.78a.956.956 0 0 0-.966.97v28.092h-3.26V33.674a.956.956 0 0 0-.966-.97h-8.935a.956.956 0 0 0-.967.97v18.384h-3.26v-19.84a.956.956 0 0 0-.965-.97h-8.875a.956.956 0 0 0-.966.97v19.84h-3.26V37.921a.956.956 0 0 0-.966-.97H6.46a.956.956 0 0 0-.966.97v14.137H.966A.956.956 0 0 0 0 53.03c0 .546.423.971.966.971h62.062a.956.956 0 0 0 .966-.97c.06-.547-.362-.972-.905-.972Zm-48.72 0H7.425V38.892h6.942v13.166Zm14.127 0h-6.943v-18.87h6.943v18.87Zm14.066 0H35.62V34.645h6.943v17.413Zm14.127 0h-6.943v-27.12h6.943v27.12Z" fill="url(#d)"/><defs><linearGradient id="a" x1="32" y1="0" x2="32" y2="54" gradientUnits="userSpaceOnUse"><stop stop-color="#36B1FF"/><stop offset="1" stop-color="#8843FB"/></linearGradient><linearGradient id="b" x1="32" y1="0" x2="32" y2="54" gradientUnits="userSpaceOnUse"><stop stop-color="#36B1FF"/><stop offset="1" stop-color="#8843FB"/></linearGradient><linearGradient id="c" x1="32" y1="0" x2="32" y2="54" gradientUnits="userSpaceOnUse"><stop stop-color="#36B1FF"/><stop offset="1" stop-color="#8843FB"/></linearGradient><linearGradient id="d" x1="32" y1="0" x2="32" y2="54" gradientUnits="userSpaceOnUse"><stop stop-color="#36B1FF"/><stop offset="1" stop-color="#8843FB"/></linearGradient></defs></svg>