<svg width="55" height="54" fill="none" xmlns="http://www.w3.org/2000/svg"><path d="M41.25 0H11.917a2.784 2.784 0 0 0-1.942.793A2.683 2.683 0 0 0 9.167 2.7v18.9H5.5a.872.872 0 0 0-.34.063l-4.582 1.8a.913.913 0 0 0-.42.331A.888.888 0 0 0 0 24.3v12.6a.887.887 0 0 0 .412.747l2.76 1.8a.9.9 0 0 0 .504.153h5.49v11.7c.003.715.293 1.4.809 1.907a2.784 2.784 0 0 0 1.942.793H41.25a2.784 2.784 0 0 0 1.942-.793A2.683 2.683 0 0 0 44 51.3V2.7a2.683 2.683 0 0 0-.808-1.907A2.784 2.784 0 0 0 41.25 0ZM9.075 28.8h.092v9H3.95l-2.118-1.386V24.912L5.674 23.4H16.5c.486 0 .953.19 1.296.527.344.338.537.796.537 1.273 0 .477-.193.935-.537 1.273A1.85 1.85 0 0 1 16.5 27H8.25a.925.925 0 0 0-.648.264.892.892 0 0 0-.269.636 2.683 2.683 0 0 1-.808 1.907 2.784 2.784 0 0 1-1.942.793v1.8a4.645 4.645 0 0 0 2.898-1.016A4.495 4.495 0 0 0 9.075 28.8Zm33.092 22.5a.892.892 0 0 1-.269.636.925.925 0 0 1-.648.264H11.917a.925.925 0 0 1-.649-.264A.892.892 0 0 1 11 51.3V28.8h5.5c.973 0 1.905-.38 2.593-1.054a3.567 3.567 0 0 0 1.074-2.546c0-.955-.387-1.87-1.074-2.546A3.701 3.701 0 0 0 16.5 21.6H11V2.7c0-.239.097-.468.268-.636a.925.925 0 0 1 .649-.264H41.25c.243 0 .476.095.648.264a.892.892 0 0 1 .269.636v48.6Z" fill="url(#a)"/><path d="M26.583 16.2a.925.925 0 0 0 .648-.264l5.186-5.091-1.296-1.273-4.538 4.455-1.945-1.91-1.296 1.273 2.593 2.546a.925.925 0 0 0 .648.264Z" fill="url(#b)"/><path d="m35.21 7.281-8.25-3.6a.912.912 0 0 0-.753 0l-8.25 3.6a.9.9 0 0 0-.395.33.876.876 0 0 0-.145.489v5.769a7.97 7.97 0 0 0 .723 3.316 8.093 8.093 0 0 0 2.045 2.732l5.793 5.058a.927.927 0 0 0 1.21 0l5.794-5.058a8.093 8.093 0 0 0 2.045-2.732 7.957 7.957 0 0 0 .723-3.316V8.1a.877.877 0 0 0-.146-.489.9.9 0 0 0-.395-.33Zm-1.293 6.588a6.216 6.216 0 0 1-.565 2.58 6.321 6.321 0 0 1-1.59 2.127l-5.179 4.518-5.179-4.518a6.321 6.321 0 0 1-1.59-2.128 6.216 6.216 0 0 1-.564-2.579V8.685l7.333-3.204 7.334 3.204v5.184Z" fill="url(#c)"/><path d="M54.083 18h-2.75v-2.7c0-.716-.29-1.403-.805-1.91a2.776 2.776 0 0 0-1.945-.79c-.729 0-1.428.284-1.944.79a2.676 2.676 0 0 0-.806 1.91v30.6c0 .073.01.145.028.216l1.833 7.2c.05.195.164.367.325.49a.928.928 0 0 0 1.128 0 .9.9 0 0 0 .325-.49l1.834-7.2a.87.87 0 0 0 .027-.216V19.8h1.834v8.1H55v-9a.892.892 0 0 0-.269-.636.925.925 0 0 0-.648-.264Zm-5.5 31.392-.66-2.592h1.32l-.66 2.592ZM49.5 45h-1.833V19.8H49.5V45Zm0-27h-1.833v-2.7c0-.239.096-.468.268-.636a.925.925 0 0 1 1.296 0 .892.892 0 0 1 .269.636V18Z" fill="url(#d)"/><path d="M14.667 32.4h3.666v1.8h-3.666v-1.8Z" fill="url(#e)"/><path d="M20.167 32.4H38.5v1.8H20.167v-1.8Z" fill="url(#f)"/><path d="M14.667 37.8h3.666v1.8h-3.666v-1.8Z" fill="url(#g)"/><path d="M20.167 37.8H38.5v1.8H20.167v-1.8Z" fill="url(#h)"/><path d="M14.667 43.2h3.666V45h-3.666v-1.8Z" fill="url(#i)"/><path d="M20.167 43.2H38.5V45H20.167v-1.8Z" fill="url(#j)"/><path d="M14.667 48.6h3.666v1.8h-3.666v-1.8Z" fill="url(#k)"/><path d="M20.167 48.6H38.5v1.8H20.167v-1.8Z" fill="url(#l)"/><defs><linearGradient id="a" x1="27.5" y1="0" x2="27.5" y2="54" gradientUnits="userSpaceOnUse"><stop stop-color="#36B1FF"/><stop offset="1" stop-color="#8843FB"/></linearGradient><linearGradient id="b" x1="27.5" y1="0" x2="27.5" y2="54" gradientUnits="userSpaceOnUse"><stop stop-color="#36B1FF"/><stop offset="1" stop-color="#8843FB"/></linearGradient><linearGradient id="c" x1="27.5" y1="0" x2="27.5" y2="54" gradientUnits="userSpaceOnUse"><stop stop-color="#36B1FF"/><stop offset="1" stop-color="#8843FB"/></linearGradient><linearGradient id="d" x1="27.5" y1="0" x2="27.5" y2="54" gradientUnits="userSpaceOnUse"><stop stop-color="#36B1FF"/><stop offset="1" stop-color="#8843FB"/></linearGradient><linearGradient id="e" x1="27.5" y1="0" x2="27.5" y2="54" gradientUnits="userSpaceOnUse"><stop stop-color="#36B1FF"/><stop offset="1" stop-color="#8843FB"/></linearGradient><linearGradient id="f" x1="27.5" y1="0" x2="27.5" y2="54" gradientUnits="userSpaceOnUse"><stop stop-color="#36B1FF"/><stop offset="1" stop-color="#8843FB"/></linearGradient><linearGradient id="g" x1="27.5" y1="0" x2="27.5" y2="54" gradientUnits="userSpaceOnUse"><stop stop-color="#36B1FF"/><stop offset="1" stop-color="#8843FB"/></linearGradient><linearGradient id="h" x1="27.5" y1="0" x2="27.5" y2="54" gradientUnits="userSpaceOnUse"><stop stop-color="#36B1FF"/><stop offset="1" stop-color="#8843FB"/></linearGradient><linearGradient id="i" x1="27.5" y1="0" x2="27.5" y2="54" gradientUnits="userSpaceOnUse"><stop stop-color="#36B1FF"/><stop offset="1" stop-color="#8843FB"/></linearGradient><linearGradient id="j" x1="27.5" y1="0" x2="27.5" y2="54" gradientUnits="userSpaceOnUse"><stop stop-color="#36B1FF"/><stop offset="1" stop-color="#8843FB"/></linearGradient><linearGradient id="k" x1="27.5" y1="0" x2="27.5" y2="54" gradientUnits="userSpaceOnUse"><stop stop-color="#36B1FF"/><stop offset="1" stop-color="#8843FB"/></linearGradient><linearGradient id="l" x1="27.5" y1="0" x2="27.5" y2="54" gradientUnits="userSpaceOnUse"><stop stop-color="#36B1FF"/><stop offset="1" stop-color="#8843FB"/></linearGradient></defs></svg>