<svg width="63" height="55" fill="none" xmlns="http://www.w3.org/2000/svg"><mask id="a" style="mask-type:alpha" maskUnits="userSpaceOnUse" x="38" y="4" width="8" height="11"><path d="m38.587 13.845 6.89-9.507-4.45 9.841-2.44-.334Z" fill="#fff"/></mask><g mask="url(#a)"><path fill-rule="evenodd" clip-rule="evenodd" d="m38.587 13.845 6.89-9.507-4.45 9.841-2.44-.334Z" fill="url(#b)"/></g><mask id="c" style="mask-type:alpha" maskUnits="userSpaceOnUse" x="10" y="0" width="44" height="42"><path d="M45.318 41.23 42.64 26.35l10.89-10.46-12.503-1.711c-6.534 14.368-8.59 20.119 4.29 27.05ZM32.03.23l-6.558 13.615L10.53 15.89l10.89 10.46-2.678 14.88 19.845-27.385 2.44.334-2.44-.334L32.03.229Z" fill="#fff"/></mask><g mask="url(#c)"><path fill-rule="evenodd" clip-rule="evenodd" d="m43.7 41.23-2.553-14.88L51.53 15.89l-11.921-1.71c-6.23 14.368-8.19 20.119 4.09 27.05ZM31.03.23l-6.253 13.615L10.53 15.89l10.383 10.46-2.553 14.88 18.922-27.385 2.327.334-2.327-.334L31.03.229Z" fill="url(#d)"/></g><mask id="e" style="mask-type:alpha" maskUnits="userSpaceOnUse" x="16" y="53" width="5" height="2"><path d="m16.295 54.707 2.045-1.288 2.044 1.288a10.372 10.372 0 0 0-4.09 0Z" fill="#fff"/></mask><g mask="url(#e)"><path fill-rule="evenodd" clip-rule="evenodd" d="m16.295 54.707 2.045-1.288 2.044 1.288a10.372 10.372 0 0 0-4.09 0Z" fill="#fff"/></g><path fill-rule="evenodd" clip-rule="evenodd" d="M31.997 54.707h4.695c1.06 0 1.793-.6 1.793-1.467v-1.218c0-.507-.303-.878-.897-1.116.53-.258.796-.63.796-1.115v-1.054c0-.867-.733-1.466-1.793-1.466h-4.594v7.436Zm1.817-6.052h2.323c.29 0 .429.113.429.35v.889c0 .29-.088.351-.43.351h-2.322v-1.59Zm0 2.912h2.272c.417 0 .581.041.581.33v1.075c0 .237-.139.35-.43.35h-2.423v-1.755Zm11.032 1.467.593 1.673h1.957l-2.928-7.436h-2.121l-2.928 7.436h1.88l.606-1.673h2.941Zm-.492-1.405H42.41l.985-2.726.959 2.726Zm10.224-2.066v-.867c0-.867-.732-1.466-1.793-1.466H50.11c-1.06 0-1.793.599-1.793 1.466v1.26c0 .785.758 1.29 1.818 1.487l2.348.413c.303.052.429.134.429.351v.785c0 .238-.14.351-.43.351h-1.968c-.29 0-.43-.113-.43-.35v-.662h-1.767v.95c0 .868.732 1.467 1.793 1.467h2.827c1.06 0 1.792-.599 1.792-1.466v-1.343c0-.785-.757-1.291-1.817-1.487l-2.348-.413c-.303-.052-.43-.135-.43-.352v-.702c0-.237.14-.351.43-.351h1.818c.29 0 .429.114.429.351v.578h1.767Zm2.007 5.144h5.945v-1.405h-4.128v-1.694h3.345v-1.404h-5.162v4.503Zm1.817-6.032h4.128v-1.404h-5.945v1.404h1.817Zm-29.548 3.213c.757-.176 1.237-.703 1.237-1.405v-1.745c0-.868-.732-1.467-1.793-1.467h-4.632v7.436h1.818v-2.758h1.464l1.464 2.758h1.957l-1.515-2.82ZM6.79 49.564v-.868c0-.867-.732-1.466-1.792-1.466H2.322c-1.06 0-1.792.599-1.792 1.466v1.26c0 .785.757 1.291 1.817 1.487l2.348.413c.303.052.43.135.43.352v.785c0 .237-.14.35-.43.35H2.726c-.29 0-.43-.113-.43-.35v-.661H.53v.95c0 .867.732 1.466 1.792 1.466H5.15c1.06 0 1.793-.599 1.793-1.466v-1.343c0-.785-.758-1.29-1.818-1.487l-2.348-.413c-.302-.052-.429-.134-.429-.351v-.703c0-.237.14-.35.43-.35h1.817c.29 0 .43.113.43.35v.579H6.79Zm7.763-2.293H7.989v1.384h2.373v6.052h1.818v-6.052h2.373v-1.384Zm5.831 7.436h1.957l-2.928-7.436h-2.121l-2.928 7.436h1.88c.7-1.935 1.397-3.87 2.096-5.804.68 1.935 1.359 3.87 2.044 5.804Zm7.89-4.493c0 .238-.14.352-.43.352h-2.36v-1.89h2.36c.29 0 .43.113.43.35v1.188Z" fill="#fff"/><defs><linearGradient id="b" x1="42.419" y1="37.284" x2="54.528" y2="22.867" gradientUnits="userSpaceOnUse"><stop stop-color="#06DBEC"/><stop offset="1" stop-color="#B808FF"/></linearGradient><linearGradient id="d" x1="42.051" y1="55.931" x2="67.652" y2="22.096" gradientUnits="userSpaceOnUse"><stop stop-color="#06DBEC"/><stop offset="1" stop-color="#B808FF"/></linearGradient></defs></svg>