<svg width="15" height="15" fill="none" xmlns="http://www.w3.org/2000/svg"><g clip-path="url(#a)"><path d="m14.24 2.926-.007-.002-3.593-1.038a1.497 1.497 0 0 0-1.79.585L6.957 5.565 5.881 3.71a.41.41 0 0 0-.166-.157L2.71 1.992a1.481 1.481 0 0 0-1.462.048A1.48 1.48 0 0 0 .53 3.315v6.667c0 .572.318 1.084.831 1.338l2.423 1.196a1.492 1.492 0 0 0 2.153-1.338v-.947l3.615 1.245 3 1.033a1.478 1.478 0 0 0 1.352-.196c.398-.284.626-.726.626-1.215v-7.78a.41.41 0 0 0-.29-.392Zm-4.694-.021a.674.674 0 0 1 .808-.25.42.42 0 0 0 .04.014l3.111.898-3.822 6.699-2.258-3.894 2.12-3.467Zm-4.43 8.273a.66.66 0 0 1-.317.571.66.66 0 0 1-.652.032l-2.423-1.197a.668.668 0 0 1-.374-.602V3.315c0-.24.118-.45.323-.574a.667.667 0 0 1 .658-.022l2.785 1.446v7.013Zm.82-1.814V5.44l.656 1.13.002.003 2.185 3.768-2.842-.978Zm7.492 2.281a.664.664 0 0 1-.609.088l-2.532-.871 3.422-5.998v6.234c0 .22-.102.42-.281.547Z" fill="#D1C1EC"/></g><defs><clipPath id="a"><path fill="#fff" transform="translate(.53 .23)" d="M0 0h14v14H0z"/></clipPath></defs></svg>