<svg width="30" height="28" fill="none" xmlns="http://www.w3.org/2000/svg"><path d="M29.533 26.7c-.06-5.453-3.128-11.544-7.722-15.285a14.46 14.46 0 0 0-4.661-9.927.596.596 0 0 0-.994.369l-.52 4.51-.644-.526a.596.596 0 0 0-.81.058L6.824 13.7a.584.584 0 0 0-.16.42.567.567 0 0 0 .16.38l.58.596-4.525.838c-.22.04-.378.22-.443.431a.53.53 0 0 0-.02.168c.004.165.082.33.202.442 2.772 2.541 6.527 3.923 10.339 3.83 4.125 4.252 10.505 6.853 16.018 6.488a.599.599 0 0 0 .558-.593ZM19.2 21.78a2.84 2.84 0 0 1-.921-2.02 2.92 2.92 0 0 1 .801-2.093c1.117-1.183 2.986-1.263 4.169-.18 1.183 1.085 1.236 2.93.12 4.113-1.116 1.184-2.987 1.264-4.169.18Z" fill="url(#a)"/><path d="M8.901 3.382C7.603 2.192 1.854.73 1.204.566a.603.603 0 0 0-.582.17.585.585 0 0 0-.131.586c.212.628 2.108 6.176 3.406 7.367 1.461 1.34 3.773 1.24 5.153-.222 1.38-1.464 1.311-3.744-.149-5.085Z" fill="url(#b)"/><defs><linearGradient id="a" x1="2.006" y1=".058" x2="21.016" y2="30.959" gradientUnits="userSpaceOnUse"><stop stop-color="#4E0EBA"/><stop offset="1" stop-color="#36B1FF"/></linearGradient><linearGradient id="b" x1="2.006" y1=".058" x2="21.016" y2="30.959" gradientUnits="userSpaceOnUse"><stop stop-color="#4E0EBA"/><stop offset="1" stop-color="#36B1FF"/></linearGradient></defs></svg>