<svg width="53" height="53" fill="none" xmlns="http://www.w3.org/2000/svg"><path d="m52.264 51.233-1.719-7.735a.903.903 0 0 0-.24-.42L39.33 32.231a57.844 57.844 0 0 0 5.353-7.21c.75.407 1.589.62 2.441.619a5.156 5.156 0 0 0 1.89-9.952c1.281-4.598.843-8.173-1.34-10.364-2.294-2.286-6.23-2.681-11.146-1.126a5.157 5.157 0 1 0-9.178 4.503 60.18 60.18 0 0 0-6.592 4.967l-1.727-1.735a.9.9 0 0 0-1.22 0l-.86.868-1.52-1.522.506-.498a.87.87 0 0 0 .138-1.04l-3.438-6.015a.892.892 0 0 0-.541-.404L1.784.745a.868.868 0 0 0-.816.223.846.846 0 0 0-.223.816l2.578 10.313a.89.89 0 0 0 .404.541l6.015 3.438a.88.88 0 0 0 1.04-.138l.498-.507 1.522 1.521-.868.86a.871.871 0 0 0 0 1.22l1.736 1.736a58.035 58.035 0 0 0-5.354 7.21 5.095 5.095 0 0 0-2.44-.619 5.157 5.157 0 0 0-1.892 9.952c-1.28 4.598-.833 8.173 1.35 10.355a7.84 7.84 0 0 0 5.749 2.063 18.183 18.183 0 0 0 5.38-.945A5.156 5.156 0 0 0 26.5 47.125a5.122 5.122 0 0 0-.85-2.827 60.089 60.089 0 0 0 6.582-4.968l10.845 10.975c.116.117.262.2.422.24l7.734 1.719c.062.01.126.016.189.017a.865.865 0 0 0 .61-.249.878.878 0 0 0 .232-.8Zm-3.781-7.545-1.788 1.787L36.52 35.309a56.191 56.191 0 0 0 1.676-1.788l10.287 10.166Zm2.08-23.204a3.437 3.437 0 1 1-6.874 0 3.437 3.437 0 0 1 6.874 0ZM31.656 2.437a3.438 3.438 0 1 1 0 6.876 3.438 3.438 0 0 1 0-6.876ZM18.422 13.755 31.837 27.17a69.13 69.13 0 0 1-2.269 2.398 55.575 55.575 0 0 1-2.398 2.269L13.755 18.422l4.667-4.667Zm8.705 6.274c6.325-5.337 10.932-6.772 12.994-7.15-.533 2.973-2.638 7.631-7.15 12.994l-5.844-5.844ZM25.873 32.97c-6.325 5.337-10.932 6.772-12.994 7.15.533-2.973 2.638-7.631 7.15-12.994l5.844 5.844ZM10.026 14.254l-5.122-2.93L3.168 4.38l4.366 4.374 1.22-1.22L4.38 3.168l6.943 1.736 2.931 5.122-4.228 4.228Zm2.475-.034 1.719-1.72 1.512 1.513-1.719 1.719-1.512-1.512ZM2.438 32.516a3.438 3.438 0 1 1 6.875 0 3.438 3.438 0 0 1-6.875 0Zm18.906 18.047a3.437 3.437 0 1 1 0-6.874 3.437 3.437 0 0 1 0 6.873Zm10.372-13.046a59.696 59.696 0 0 1-7.261 5.509 5.11 5.11 0 0 0-3.111-1.057 5.165 5.165 0 0 0-5.156 5.096c-4.375 1.435-7.786 1.237-9.634-.619-1.719-1.71-2.011-4.812-.885-8.783.069 0 .137.009.206.009a5.145 5.145 0 0 0 3.799-8.628 56.65 56.65 0 0 1 5.216-7.064l3.927 3.927c-6.823 8.06-7.691 13.613-7.786 15.15a.848.848 0 0 0 .25.654.86.86 0 0 0 .61.258h.043c3.222-.172 9.057-2.44 15.778-8.302a62.829 62.829 0 0 0 3.068-2.887 67.8 67.8 0 0 0 2.887-3.068c7.313-8.405 8.199-14.197 8.302-15.77a.87.87 0 0 0-.903-.91c-3.12.171-8.705 2.31-15.159 7.777l-3.927-3.92a58.278 58.278 0 0 1 6.565-4.915 5.109 5.109 0 0 0 3.111 1.057 5.165 5.165 0 0 0 5.157-5.096c4.374-1.435 7.794-1.237 9.642.61 1.71 1.71 2.002 4.821.876 8.792-.068 0-.137-.009-.206-.009a5.145 5.145 0 0 0-3.798 8.628 56.29 56.29 0 0 1-5.81 7.76 62.799 62.799 0 0 1-2.81 2.991 72.47 72.47 0 0 1-2.99 2.81Zm1.805.68a56.191 56.191 0 0 0 1.788-1.677l10.175 10.175-1.796 1.788L33.52 38.196Zm11.877 11.008 3.807-3.807 1.083 4.89-4.89-1.083Z" fill="url(#a)"/><defs><linearGradient id="a" x1="26.5" y1=".687" x2="26.5" y2="52.281" gradientUnits="userSpaceOnUse"><stop stop-color="#36B1FF"/><stop offset="1" stop-color="#8843FB"/></linearGradient></defs></svg>