<svg xmlns="http://www.w3.org/2000/svg" fill="none" viewBox="0 76.75 262.46 109.29"><circle cx="3.311" cy="83.794" r="2.5" transform="rotate(-24.474 3.311 83.794)" fill="#CDD9E0"/><circle cx="259.147" cy="182.732" r="2.5" transform="rotate(-24.474 259.147 182.732)" fill="#CDD9E0"/><path d="M161.533 112.701c-.06-5.454-3.128-11.545-7.722-15.286a14.462 14.462 0 0 0-4.661-9.928.597.597 0 0 0-.994.369l-.52 4.512-.644-.527a.596.596 0 0 0-.809.058l-7.359 7.802a.582.582 0 0 0 .001.8l.579.596-4.525.838c-.22.041-.378.22-.443.431a.527.527 0 0 0-.021.168c.005.165.083.33.203.442 2.772 2.542 6.527 3.923 10.339 3.83 4.125 4.252 10.505 6.853 16.018 6.488a.597.597 0 0 0 .558-.593Zm-10.333-4.922a2.845 2.845 0 0 1-.922-2.02 2.926 2.926 0 0 1 .802-2.093c1.117-1.183 2.986-1.263 4.169-.18 1.182 1.085 1.236 2.93.12 4.113-1.116 1.184-2.987 1.265-4.169.18Z" fill="url(#a)"/><path d="M140.901 89.382c-1.298-1.19-7.047-2.654-7.697-2.817a.604.604 0 0 0-.582.171.586.586 0 0 0-.131.586c.212.628 2.108 6.176 3.406 7.367 1.461 1.34 3.773 1.24 5.153-.222 1.379-1.464 1.312-3.744-.149-5.085Z" fill="url(#b)"/><path d="M261.227 182.915c.029.069.058.138-.029.175-.029.175-.261.357-.55.401-1.245-.029-2.374-.027-3.531-.093-.203.007-.405-.231-.376-.406.029-.175.348-.394.55-.401 1.158.067 2.373.027 3.531.094.231.062.376.162.405.23Zm-9.637-.45c.029.068.058.137 0 .243-.116.213-.348.395-.579.333a35.847 35.847 0 0 1-3.444-.375c-.231-.062-.405-.231-.289-.443.116-.213.348-.395.579-.333 1.187.136 2.257.24 3.444.375.115.031.231.062.289.2Zm-9.463-1.258c.029.069.058.138 0 .244-.116.213-.376.326-.579.332-1.1-.172-2.228-.414-3.356-.656-.232-.062-.319-.268-.203-.481a.548.548 0 0 1 .608-.263c1.129.241 2.228.414 3.357.656.029.069.145.1.173.168Zm-9.114-1.895c.029.069.086.206-.001.244a.546.546 0 0 1-.608.264l-3.24-.869c-.232-.062-.318-.268-.202-.481a.547.547 0 0 1 .608-.264c1.041.28 2.112.627 3.24.869.029.069.145.1.203.237Zm-8.825-2.671c.029.069 0 .244-.058.351a.468.468 0 0 1-.637.194 29.886 29.886 0 0 1-3.067-1.187c-.231-.062-.231-.306-.115-.519.116-.213.405-.257.637-.195.984.386 2.054.734 3.038 1.119.144.1.173.169.202.237Zm-8.274-3.315c.058.137 0 .244-.058.35-.116.213-.406.257-.637.195-1.013-.454-1.938-.946-2.951-1.401-.231-.062-.231-.305-.115-.518.116-.213.405-.257.637-.195.925.492 1.938.946 2.835 1.37.202-.007.26.13.289.199Zm-7.782-4.097c.058.137 0 .243-.058.35-.145.144-.405.257-.666.126-.925-.492-1.793-1.09-2.748-1.651-.144-.1-.144-.343-.028-.556.145-.144.434-.188.666-.126.867.598 1.793 1.09 2.719 1.582 0 .244.086.206.115.275Zm-7.289-4.636c.058.137.029.312-.116.456-.145.144-.434.188-.666.126-.867-.598-1.648-1.234-2.516-1.832-.173-.169-.144-.344.059-.594.231-.182.434-.188.694-.058.781.636 1.649 1.235 2.43 1.871.086-.038.115.031.115.031ZM89.534 84.2c.135-.122.392-.15.583-.116 1.062.484 2.057 1.03 3.12 1.513.184.144.24.3.1.533-.141.232-.399.26-.65.178-.996-.545-2.058-1.03-3.121-1.513-.19-.034-.24-.3-.032-.594-.067.061-.067.061 0 0Zm8.41 4.37c.134-.123.46-.212.582-.116l2.986 1.636c.184.143.172.362.099.533a.764.764 0 0 1-.65.178l-2.986-1.636c-.184-.144-.234-.41-.032-.595Zm8.139 4.616c.203-.184.46-.212.583-.117.995.546 1.923 1.153 2.851 1.76.184.143.173.362-.029.546-.203.185-.46.212-.645.069-.927-.607-1.923-1.152-2.85-1.76-.062-.047-.112-.313.09-.498-.067.062 0 0 0 0Zm7.804 4.923c.202-.184.459-.212.644-.069.989.655 1.917 1.262 2.783 1.821.185.144.173.362-.029.547-.202.184-.46.212-.644.068l-2.784-1.82c-.123-.096-.172-.362.03-.547Zm7.662 5.156c.203-.185.46-.212.645-.069.989.655 1.849 1.323 2.777 1.93.185.143.173.362-.029.546-.202.185-.46.213-.644.069-.799-.62-1.727-1.227-2.716-1.882-.246-.191-.235-.409-.033-.594Zm7.175 4.57c.148-.113.404-.118.585-.067.975.588 1.876 1.232 2.85 1.82.161.163.195.328.026.552-.168.223-.424.228-.659.123-.901-.645-1.875-1.233-2.85-1.82-.182-.052-.195-.328.048-.608-.074.056-.074.056 0 0Zm7.642 5.202c.148-.113.478-.175.585-.067l2.702 1.934c.162.162.121.384.027.551a.747.747 0 0 1-.66.123l-2.702-1.933a.396.396 0 0 1 .048-.608Zm7.346 5.429c.222-.17.478-.175.585-.067.901.645 1.728 1.346 2.554 2.047.161.162.121.384-.101.554-.223.169-.478.174-.64.012-.826-.701-1.727-1.345-2.553-2.047-.054-.054-.067-.329.155-.499-.074.057 0 0 0 0Zm6.976 5.712c.222-.17.478-.175.639-.013.88.756 1.707 1.457 2.479 2.104.162.162.121.383-.101.553-.222.17-.478.175-.639.013l-2.48-2.103c-.107-.109-.121-.384.102-.554Zm6.807 5.936c.222-.17.478-.175.639-.013.88.755 1.633 1.513 2.459 2.214.161.163.121.384-.101.554-.223.17-.478.175-.64.012-.698-.703-1.525-1.404-2.405-2.159-.215-.217-.174-.438.048-.608Zm6.481 4.89c.151-.11.405-.108.584-.051.947.616 1.819 1.288 2.766 1.905.155.168.182.334.006.555-.175.22-.43.219-.66.106-.871-.672-1.819-1.289-2.766-1.905-.179-.057-.182-.335.07-.61-.076.055-.076.055 0 0Zm7.406 5.433c.151-.11.481-.163.584-.051l2.615 2.015c.155.168.106.389.006.555a.738.738 0 0 1-.66.106 2590.27 2590.27 0 0 0-2.615-2.015.402.402 0 0 1 .07-.61Zm7.104 5.653c.227-.165.481-.163.584-.052.871.672 1.667 1.399 2.463 2.126.155.167.106.389-.121.553-.227.165-.481.163-.635-.004-.796-.727-1.668-1.399-2.464-2.125-.052-.056-.054-.334.173-.498Zm6.725 5.927c.227-.165.481-.163.635.005.848.782 1.644 1.509 2.388 2.18.155.167.106.389-.121.554-.227.164-.481.163-.636-.005l-2.388-2.18c-.102-.112-.105-.389.122-.554Zm6.549 6.148c.227-.165.481-.163.636.005.847.782 1.568 1.564 2.364 2.291.154.167.105.389-.122.553-.227.165-.481.163-.635-.004-.669-.726-1.465-1.453-2.313-2.235-.205-.224-.157-.445.07-.61ZM10.546 80.87l.086-.039c.578-.1 1.213-.306 1.791-.406.29-.05.438.047.444.29.006.242-.135.388-.425.438-.578.1-1.212.306-1.791.406-.29.05-.437-.046-.53-.25a.893.893 0 0 1 .425-.439Zm8.674-1.738.173-.079c1.36-.21 2.604-.448 3.965-.658.29-.05.468.114.444.289.006.243-.222.428-.425.439-1.274.17-2.635.38-3.879.62-.29.05-.468-.115-.444-.29-.117-.029-.006-.243.166-.321Zm10.775-1.467.173-.078c1.305-.103 2.58-.274 3.885-.377.29-.05.468.114.389.396a.52.52 0 0 1-.542.41c-1.305.103-2.61.206-3.885.377-.29.05-.468-.114-.475-.357.142-.146.283-.292.455-.37Zm10.678-.767c.086-.04.172-.078.203-.01 1.336-.036 2.555-.1 3.892-.135.203-.01.382.154.388.396-.024.175-.252.36-.541.41a70.375 70.375 0 0 0-3.806.096c-.203.01-.382-.154-.388-.397-.062-.135.08-.281.252-.36Zm10.61 0c.086-.04.172-.078.29-.05 1.28.072 2.53.076 3.811.148.234.057.413.221.303.435-.111.214-.339.4-.573.343-1.28-.072-2.562-.144-3.812-.148-.203.01-.413-.221-.388-.396.141-.147.197-.254.37-.332Zm10.426.739c.087-.04.173-.079.29-.05 1.225.178 2.506.25 3.732.43.234.056.413.22.302.434-.11.215-.369.332-.572.343-1.226-.179-2.451-.358-3.732-.43-.234-.057-.413-.22-.303-.435.025-.175.111-.214.283-.292Zm10.126 1.448c.086-.04.172-.078.29-.05 1.225.179 2.395.465 3.652.712.234.057.326.26.216.474a.547.547 0 0 1-.603.275c-1.17-.286-2.396-.465-3.653-.712-.234-.057-.326-.26-.216-.474.055-.107.228-.186.314-.225Zm9.825 2.159a.803.803 0 0 1 .406-.022c.585.143 1.084.325 1.67.468.233.057.326.26.215.475a.547.547 0 0 1-.603.274c-.585-.142-1.084-.325-1.638-.4-.234-.057-.327-.26-.216-.474-.062-.136.08-.282.166-.321Z" fill="#CDD9E0"/><defs><linearGradient id="a" x1="134.006" y1="86.058" x2="153.016" y2="116.959" gradientUnits="userSpaceOnUse"><stop stop-color="#4E0EBA"/><stop offset="1" stop-color="#36B1FF"/></linearGradient><linearGradient id="b" x1="134.006" y1="86.058" x2="153.016" y2="116.959" gradientUnits="userSpaceOnUse"><stop stop-color="#4E0EBA"/><stop offset="1" stop-color="#36B1FF"/></linearGradient></defs></svg>