<svg width="355" height="205" fill="none" xmlns="http://www.w3.org/2000/svg"><g opacity=".55" fill="#FAFAFA"><path d="m193.47 88.742 24.26-15.278 24.262 15.278c-16.174-3.22-32.348-3.22-48.522 0Z"/><path fill-rule="evenodd" clip-rule="evenodd" d="m193.47 88.742 24.26-15.278 24.262 15.278c-16.174-3.22-32.348-3.22-48.522 0ZM0 204.51h55.67c12.57 0 21.25-7.087 21.25-17.352v-14.42c0-5.988-3.593-10.387-10.626-13.198 6.285-3.055 9.428-7.454 9.428-13.198v-12.464c0-10.265-8.68-17.352-21.25-17.352H0v87.984Zm21.549-71.609h27.535c3.442 0 5.088 1.344 5.088 4.155v10.509c0 3.421-1.047 4.154-5.088 4.154H21.55v-18.818Zm0 34.46h26.937c4.938 0 6.884.489 6.884 3.911v12.708c0 2.811-1.646 4.155-5.088 4.155H21.549v-20.774Zm130.793 17.353 7.033 19.796h23.196l-34.718-87.984h-25.141L87.993 204.51h22.297l7.184-19.796h34.868Zm-5.836-16.619h-23.047l11.673-32.262 11.374 32.262Zm121.215-24.441v-10.265c0-10.265-8.68-17.352-21.25-17.352h-31.725c-12.571 0-21.251 7.087-21.251 17.352v14.909c0 9.287 8.979 15.275 21.55 17.597l27.835 4.888c3.591.611 5.087 1.589 5.087 4.155v9.287c0 2.811-1.645 4.155-5.087 4.155h-23.346c-3.442 0-5.088-1.344-5.088-4.155v-7.821h-20.951v11.243c0 10.265 8.68 17.352 21.251 17.352h33.521c12.57 0 21.25-7.087 21.25-17.352V171.76c0-9.287-8.979-15.275-21.55-17.596l-27.834-4.889c-3.592-.611-5.088-1.588-5.088-4.154v-8.31c0-2.811 1.646-4.155 5.088-4.155h21.549c3.442 0 5.088 1.344 5.088 4.155v6.843h20.951Zm23.794 60.856H362v-16.619h-48.935V167.85h39.657v-16.62h-61.207v53.28ZM362 133.145v-16.619h-70.485v16.619H362Z"/><path fill-rule="evenodd" clip-rule="evenodd" d="M342.47 55.111c8.991-2.077 14.686-8.309 14.686-16.618V17.84c0-10.265-8.692-17.352-21.28-17.352h-54.998v87.984h21.579V55.845h17.384l17.384 32.627h23.228l-17.983-33.36ZM80.517 27.617V17.35C80.517 7.086 71.826 0 59.237 0h-31.77C14.879 0 6.187 7.087 6.187 17.352v14.91c0 9.286 8.992 15.274 21.58 17.596l27.874 4.888c3.596.611 5.095 1.589 5.095 4.155v9.287c0 2.81-1.648 4.155-5.095 4.155H32.263c-3.447 0-5.095-1.344-5.095-4.155v-7.82H6.188V71.61c0 10.265 8.691 17.352 21.28 17.352h33.568c12.588 0 21.28-7.087 21.28-17.352V55.723c0-9.288-8.992-15.276-21.58-17.597l-27.874-4.888c-3.596-.611-5.095-1.589-5.095-4.155v-8.31c0-2.81 1.649-4.155 5.095-4.155h21.58c3.447 0 5.095 1.344 5.095 4.155v6.844h20.98ZM172.68.488H94.753v16.375h28.174v71.61h21.58v-71.61h28.173V.488Zm69.234 87.984h23.229L230.375.489H205.2l-34.768 87.984h22.329c8.317-22.89 16.58-45.78 24.876-68.676 8.083 22.894 16.137 45.796 24.277 68.677Zm93.662-53.157c0 2.81-1.648 4.155-5.095 4.155h-28.024V17.107h28.024c3.447 0 5.095 1.345 5.095 4.155v14.053Z"/></g></svg>