<svg width="837" height="102" fill="none" xmlns="http://www.w3.org/2000/svg"><mask id="a" style="mask-type:alpha" maskUnits="userSpaceOnUse" x="212" y="83" width="56" height="18"><path d="m212.733 100.896 27.592-17.373 27.592 17.373c-18.395-3.662-36.79-3.662-55.184 0Z" fill="#fff"/></mask><g mask="url(#a)"><path fill-rule="evenodd" clip-rule="evenodd" d="m212.733 100.896 27.592-17.373 27.592 17.373c-18.395-3.662-36.79-3.662-55.184 0Z" fill="#F3F7F9"/></g><path fill-rule="evenodd" clip-rule="evenodd" d="M424.613 100.896h63.36c14.308 0 24.186-8.083 24.186-19.79V64.664c0-6.829-4.088-11.846-12.093-15.051 7.154-3.484 10.73-8.5 10.73-15.051V20.346c0-11.706-9.878-19.788-24.185-19.788h-61.998v100.338Zm24.527-81.664h31.339c3.917 0 5.791 1.533 5.791 4.738v11.985c0 3.902-1.192 4.738-5.791 4.738H449.14V19.232Zm0 39.299h30.658c5.62 0 7.835.557 7.835 4.46v14.493c0 3.205-1.874 4.738-5.791 4.738H449.14V58.531Zm148.861 19.79 8.005 22.575h26.401L592.892.558h-28.614l-39.515 100.338h25.378l8.175-22.576h39.685Zm-6.642-18.954h-26.23l13.285-36.79 12.945 36.79ZM729.32 31.495V19.79C729.32 8.083 719.441 0 705.134 0h-36.108c-14.307 0-24.186 8.083-24.186 19.789V36.79c0 10.591 10.219 17.42 24.527 20.068l31.68 5.574c4.087.697 5.79 1.812 5.79 4.738v10.591c0 3.206-1.873 4.739-5.79 4.739h-26.571c-3.917 0-5.791-1.533-5.791-4.739v-8.918H644.84v12.82c0 11.707 9.879 19.789 24.186 19.789h38.152c14.307 0 24.186-8.082 24.186-19.788V63.548c0-10.592-10.219-17.42-24.527-20.068l-31.679-5.574c-4.088-.697-5.791-1.812-5.791-4.738V23.69c0-3.205 1.873-4.738 5.791-4.738h24.526c3.917 0 5.791 1.533 5.791 4.738v7.804h23.845Zm27.081 69.401h80.222V81.943h-55.695V59.088h45.135V40.135h-69.662v60.761Zm24.527-81.386h55.695V.558h-80.222V19.51h24.527ZM382.203 62.85c10.22-2.368 16.692-9.475 16.692-18.952V20.346c0-11.706-9.878-19.788-24.186-19.788h-62.508v100.338h24.526v-37.21h19.758l19.757 37.21h26.4l-20.439-38.045ZM84.48 31.496V19.79C84.48 8.083 74.6 0 60.294 0H24.186C9.879 0 0 8.083 0 19.789V36.79c0 10.591 10.219 17.42 24.526 20.068l31.68 5.574c4.088.697 5.791 1.812 5.791 4.738v10.591c0 3.206-1.873 4.739-5.79 4.739H29.635c-3.918 0-5.791-1.533-5.791-4.739v-8.918H0v12.82c0 11.707 9.879 19.789 24.186 19.789h38.152c14.307 0 24.185-8.082 24.185-19.788V63.548c0-10.592-10.219-17.42-24.526-20.068l-31.68-5.574c-4.088-.697-5.79-1.812-5.79-4.738V23.69c0-3.205 1.873-4.738 5.79-4.738h24.526c3.918 0 5.791 1.533 5.791 4.738v7.804H84.48ZM189.228.558H100.66v18.674h32.02v81.664h24.527V19.232h32.021V.558Zm78.689 100.338h26.4L254.802.558h-28.614l-39.515 100.338h25.378c9.453-26.105 18.844-52.208 28.274-78.32 9.186 26.11 18.339 52.227 27.592 78.32Zm106.451-60.621c0 3.205-1.873 4.738-5.79 4.738h-31.851V19.51h31.851c3.917 0 5.79 1.534 5.79 4.739v16.026Z" fill="#F3F7F9"/></svg>