<svg width="548" height="67" fill="none" xmlns="http://www.w3.org/2000/svg"><mask id="a" style="mask-type:alpha" maskUnits="userSpaceOnUse" x="139" y="54" width="37" height="13"><path d="m139.343 66.177 18.073-11.38 18.073 11.38c-12.048-2.399-24.097-2.399-36.146 0Z" fill="#fff"/></mask><g mask="url(#a)"><path fill-rule="evenodd" clip-rule="evenodd" d="m139.343 66.177 18.073-11.38 18.073 11.38c-12.048-2.399-24.097-2.399-36.146 0Z" fill="#F3F7F9"/></g><path fill-rule="evenodd" clip-rule="evenodd" d="M278.128 66.177h41.502c9.371 0 15.842-5.294 15.842-12.962v-10.77c0-4.474-2.678-7.76-7.922-9.86 4.686-2.282 7.029-5.568 7.029-9.858v-9.31c0-7.668-6.471-12.963-15.842-12.963h-40.609v65.723Zm16.065-53.49h20.528c2.566 0 3.793 1.003 3.793 3.103v7.85c0 2.556-.781 3.104-3.793 3.104h-20.528V12.686Zm0 25.74h20.081c3.682 0 5.132.366 5.132 2.922v9.493c0 2.1-1.227 3.104-3.793 3.104h-21.42V38.428Zm97.506 12.963 5.244 14.787h17.292L388.353.454H369.61l-25.883 65.724h16.623l5.355-14.788h25.994Zm-4.35-12.415h-17.182l8.703-24.098 8.479 24.098Zm90.366-18.256v-7.668c0-7.668-6.471-12.962-15.842-12.962h-23.651c-9.372 0-15.842 5.294-15.842 12.962v11.137c0 6.937 6.693 11.41 16.065 13.144l20.751 3.652c2.677.456 3.792 1.186 3.792 3.103v6.938c0 2.1-1.226 3.103-3.792 3.103h-17.404c-2.566 0-3.794-1.004-3.794-3.103v-5.842H422.38v8.398c0 7.667 6.47 12.962 15.842 12.962h24.99c9.371 0 15.842-5.295 15.842-12.962V41.714c0-6.938-6.694-11.41-16.066-13.145l-20.75-3.651c-2.678-.456-3.793-1.187-3.793-3.104v-6.207c0-2.1 1.227-3.103 3.793-3.103h16.065c2.566 0 3.793 1.004 3.793 3.103v5.112h15.619Zm17.739 45.459H548V53.762h-36.481v-14.97h29.564V26.378h-45.629v39.8Zm16.065-53.31H548V.455h-52.546V12.87h16.065Zm-261.17 28.389c6.693-1.551 10.933-6.207 10.933-12.414V13.416c0-7.667-6.471-12.962-15.842-12.962h-40.944v65.723h16.065V41.805h12.942l12.941 24.372h17.292l-13.387-24.92ZM55.336 20.72v-7.668C55.336 5.384 48.865.09 39.493.09H15.842C6.471.09 0 5.383 0 13.051v11.137c0 6.937 6.694 11.41 16.065 13.144l20.75 3.652c2.678.456 3.794 1.186 3.794 3.103v6.938c0 2.1-1.227 3.103-3.793 3.103H19.412c-2.566 0-3.793-1.004-3.793-3.103v-5.842H0v8.398c0 7.667 6.47 12.962 15.842 12.962h24.99c9.371 0 15.842-5.295 15.842-12.962V41.714c0-6.938-6.694-11.41-16.065-13.145l-20.751-3.651c-2.677-.456-3.793-1.187-3.793-3.104v-6.207c0-2.1 1.227-3.103 3.793-3.103h16.065c2.566 0 3.794 1.004 3.794 3.103v5.112h15.619ZM123.947.454H65.934v12.232h20.974v53.491h16.065v-53.49h20.974V.453Zm51.542 65.723h17.293L166.899.454h-18.742l-25.884 65.724h16.624c6.192-17.1 12.343-34.198 18.519-51.301 6.017 17.102 12.013 34.209 18.073 51.3Zm69.728-39.707c0 2.1-1.228 3.103-3.793 3.103h-20.863V12.87h20.863c2.565 0 3.793 1.004 3.793 3.103V26.47Z" fill="#F3F7F9"/></svg>