<svg width="362" height="205" fill="none" xmlns="http://www.w3.org/2000/svg"><path d="m193.47 88.742 24.261-15.278 24.261 15.278c-16.174-3.22-32.348-3.22-48.522 0Z" fill="url(#a)"/><path fill-rule="evenodd" clip-rule="evenodd" d="m193.47 88.742 24.261-15.278 24.261 15.278c-16.174-3.22-32.348-3.22-48.522 0Z" fill="url(#b)"/><path fill-rule="evenodd" clip-rule="evenodd" d="M0 204.51h55.67c12.57 0 21.25-7.087 21.25-17.352v-14.42c0-5.988-3.592-10.387-10.626-13.198 6.286-3.055 9.428-7.454 9.428-13.198v-12.464c0-10.265-8.68-17.352-21.25-17.352H0v87.984Zm21.55-71.609h27.535c3.442 0 5.088 1.344 5.088 4.155v10.509c0 3.421-1.048 4.155-5.088 4.155H21.549v-18.819Zm0 34.46h26.936c4.939 0 6.884.489 6.884 3.911v12.709c0 2.81-1.646 4.154-5.088 4.154H21.55v-20.774Zm130.792 17.353 7.033 19.796h23.196l-34.718-87.984h-25.141L87.993 204.51h22.298l7.183-19.796h34.868Zm-5.836-16.619H123.46l11.673-32.262 11.373 32.262Zm121.215-24.441v-10.265c0-10.265-8.679-17.352-21.25-17.352h-31.725c-12.571 0-21.25 7.087-21.25 17.352v14.909c0 9.287 8.978 15.275 21.549 17.597l27.835 4.888c3.591.611 5.088 1.589 5.088 4.155v9.287c0 2.811-1.646 4.155-5.088 4.155h-23.345c-3.442 0-5.089-1.344-5.089-4.155v-7.821h-20.95v11.243c0 10.265 8.679 17.352 21.25 17.352h33.521c12.571 0 21.25-7.087 21.25-17.352V171.76c0-9.287-8.978-15.275-21.549-17.596l-27.835-4.888c-3.592-.612-5.088-1.589-5.088-4.155v-8.31c0-2.811 1.646-4.155 5.088-4.155h21.55c3.441 0 5.088 1.344 5.088 4.155v6.843h20.95Zm23.795 60.856H362v-16.619h-48.935V167.85h39.657v-16.62h-61.206v53.28ZM362 133.145v-16.619h-70.484v16.619H362Z" fill="url(#c)"/><path fill-rule="evenodd" clip-rule="evenodd" d="M342.47 55.112c8.991-2.078 14.686-8.31 14.686-16.62V17.84c0-10.265-8.692-17.352-21.28-17.352h-54.998v87.985h21.579V55.845h17.384l17.384 32.628h23.228L342.47 55.112ZM80.518 27.617V17.35C80.518 7.087 71.826 0 59.238 0h-31.77C14.88 0 6.188 7.088 6.188 17.352v14.91c0 9.286 8.991 15.274 21.58 17.596l27.873 4.888c3.596.611 5.095 1.589 5.095 4.155v9.287c0 2.81-1.648 4.155-5.095 4.155H32.263c-3.447 0-5.095-1.344-5.095-4.155v-7.82H6.188V71.61c0 10.265 8.692 17.352 21.28 17.352h33.568c12.588 0 21.28-7.087 21.28-17.352V55.723c0-9.288-8.992-15.276-21.58-17.597l-27.874-4.888c-3.596-.611-5.095-1.589-5.095-4.155v-8.31c0-2.81 1.649-4.155 5.095-4.155h21.58c3.447 0 5.095 1.344 5.095 4.155v6.844h20.98ZM172.68.488H94.754v16.375h28.173v71.61h21.58v-71.61h28.173V.488Zm69.235 87.985h23.228L230.375.488H205.2l-34.768 87.985h22.329c8.318-22.892 16.58-45.78 24.877-68.677 8.082 22.894 16.136 45.796 24.277 68.677Zm93.661-53.158c0 2.81-1.648 4.155-5.095 4.155h-28.024V17.107h28.024c3.447 0 5.095 1.345 5.095 4.155v14.053Z" fill="url(#d)"/><defs><linearGradient id="a" x1="181" y1="-.001" x2="181" y2="204.999" gradientUnits="userSpaceOnUse"><stop stop-color="#7D33F7"/><stop offset=".886" stop-color="#0098FF"/></linearGradient><linearGradient id="b" x1="181" y1="-.001" x2="181" y2="204.999" gradientUnits="userSpaceOnUse"><stop stop-color="#7D33F7"/><stop offset=".886" stop-color="#0098FF"/></linearGradient><linearGradient id="c" x1="181" y1="-.001" x2="181" y2="204.999" gradientUnits="userSpaceOnUse"><stop stop-color="#7D33F7"/><stop offset=".886" stop-color="#0098FF"/></linearGradient><linearGradient id="d" x1="181" y1="-.001" x2="181" y2="204.999" gradientUnits="userSpaceOnUse"><stop stop-color="#7D33F7"/><stop offset=".886" stop-color="#0098FF"/></linearGradient></defs></svg>