<svg width="72" height="590" fill="none" xmlns="http://www.w3.org/2000/svg"><g opacity=".65"><mask id="a" style="mask-type:alpha" maskUnits="userSpaceOnUse" x="58" y="400" width="14" height="40"><path d="m71.06 439.405-12.235-19.433 12.236-19.433c-2.58 12.955-2.58 25.91 0 38.866Z" fill="#fff"/></mask><g mask="url(#a)"><path fill-rule="evenodd" clip-rule="evenodd" d="m71.06 439.405-12.235-19.433 12.236-19.433c-2.58 12.955-2.58 25.91 0 38.866Z" fill="#F3F7F9"/></g><path fill-rule="evenodd" clip-rule="evenodd" d="M71.06 290.178v-44.625c0-10.076-5.692-17.034-13.937-17.034H45.542c-4.81 0-8.343 2.88-10.6 8.517-2.454-5.038-5.988-7.557-10.6-7.557H14.33c-8.245 0-13.937 6.957-13.937 17.034v43.665H71.06Zm-57.515-17.274v-22.072c0-2.759 1.08-4.079 3.337-4.079h8.441c2.748 0 3.337.84 3.337 4.079v22.072H13.545Zm27.678 0v-21.593c0-3.958.393-5.518 3.141-5.518h10.208c2.257 0 3.337 1.32 3.337 4.079v23.032H41.223Zm13.938-104.843 15.9-5.638v-18.594L.393 171.659v20.153l70.668 27.831v-17.874l-15.9-5.758v-27.95Zm-13.349 4.678v18.474l-25.911-9.357 25.911-9.117Zm-19.63-97.166h-8.245C5.693 75.573 0 82.531 0 92.607v25.431c0 10.077 5.693 17.034 13.937 17.034h11.975c7.46 0 12.268-7.197 14.133-17.274l3.926-22.312c.491-2.879 1.277-4.078 3.338-4.078h7.459c2.257 0 3.337 1.32 3.337 4.078V114.2c0 2.759-1.08 4.079-3.337 4.079h-6.282v16.793h9.03c8.245 0 13.937-6.957 13.937-17.034v-26.87c0-10.077-5.692-17.034-13.937-17.034h-12.76c-7.459 0-12.268 7.197-14.133 17.274l-3.926 22.312c-.49 2.879-1.276 4.078-3.337 4.078h-6.674c-2.258 0-3.338-1.319-3.338-4.078V96.446c0-2.759 1.08-4.079 3.338-4.079h5.496V75.573ZM71.061 56.5V0H57.712v39.226H41.616V7.437H28.267V56.5h42.794ZM13.74 39.226V0H.393v56.5H13.74V39.226Zm30.526 280.821c-1.669-7.197-6.674-11.756-13.348-11.756H14.33c-8.245 0-13.937 6.957-13.937 17.034v44.025H71.06v-17.274H44.854V338.16l26.207-13.915v-18.593l-26.795 14.395ZM22.182 529.733h-8.245C5.693 529.733 0 536.69 0 546.767v25.431c0 10.076 5.693 17.034 13.937 17.034h11.975c7.46 0 12.268-7.197 14.133-17.274l3.926-22.312c.491-2.879 1.277-4.078 3.338-4.078h7.459c2.257 0 3.337 1.319 3.337 4.078v18.713c0 2.76-1.08 4.079-3.337 4.079h-6.282v16.794h9.03c8.245 0 13.937-6.958 13.937-17.034v-26.87c0-10.077-5.692-17.034-13.937-17.034h-12.76c-7.459 0-12.268 7.197-14.133 17.274l-3.926 22.312c-.49 2.879-1.276 4.078-3.337 4.078h-6.674c-2.258 0-3.338-1.319-3.338-4.078v-17.274c0-2.759 1.08-4.079 3.338-4.079h5.496v-16.794ZM.392 455.959v62.378h13.153v-22.552h57.516v-17.274H13.545v-22.552H.393Zm70.669-55.42v-18.594L.393 409.776v20.152l70.668 27.831v-17.874c-18.386-6.658-36.77-13.272-55.16-19.913 18.388-6.47 36.782-12.917 55.16-19.433Zm-42.696-74.974c2.258 0 3.338 1.32 3.338 4.078v22.433H13.74v-22.433c0-2.758 1.08-4.078 3.337-4.078h11.288Z" fill="#F3F7F9"/></g></svg>