<svg width="19" height="17" fill="none" xmlns="http://www.w3.org/2000/svg"><g clip-path="url(#a)"><path d="M15.38 16.103a.773.773 0 0 1-.409-.116l-4.63-2.9-2.484 1.65a.78.78 0 0 1-.672.087.697.697 0 0 1-.459-.461L5.48 10 1.023 8.427a.677.677 0 0 1-.468-.624.675.675 0 0 1 .46-.63L17.956.95a.78.78 0 0 1 .834.177.644.644 0 0 1 .166.578l-2.86 13.851a.687.687 0 0 1-.437.496.78.78 0 0 1-.28.051Zm-4.633-4.387 4.125 2.583L17.098 3.52 9.06 10.66l1.668 1.044a.353.353 0 0 1 .02.012Zm-3.433-.574.552 1.931 1.19-.79-1.558-.976a.705.705 0 0 1-.184-.165ZM3.29 7.786l3.06 1.08a.697.697 0 0 1 .444.457l.388 1.357a.655.655 0 0 1 .22-.415l7.658-6.802L3.29 7.786Z" fill="#fff"/></g><defs><clipPath id="a"><path fill="#fff" transform="translate(.555)" d="M0 0h18.417v17H0z"/></clipPath></defs></svg>