<svg width="13" height="12" fill="none" xmlns="http://www.w3.org/2000/svg"><path d="M10.466 11.367a.546.546 0 0 1-.29-.082L6.909 9.238l-1.753 1.165a.551.551 0 0 1-.475.061.492.492 0 0 1-.323-.326l-.88-3.08L.33 5.949a.478.478 0 0 1-.33-.44.477.477 0 0 1 .323-.444L12.284.67a.55.55 0 0 1 .589.124.455.455 0 0 1 .117.408l-2.019 9.778a.486.486 0 0 1-.308.35.552.552 0 0 1-.197.036ZM7.195 8.27l2.912 1.823 1.57-7.608-5.673 5.04 1.177.736.014.009ZM4.77 7.865l.39 1.363L6 8.67l-1.1-.689a.497.497 0 0 1-.13-.116ZM1.93 5.496l2.16.762a.49.49 0 0 1 .313.323l.274.958a.462.462 0 0 1 .155-.293l5.406-4.801L1.93 5.496Z" fill="#D1C1EC"/></svg>