<svg width="14" height="14" fill="none" xmlns="http://www.w3.org/2000/svg"><g clip-path="url(#a)"><path d="m11.987 3.149-.006-.025c.55-.33.995-.874 1.193-1.498-.516.307-1.12.54-1.726.66a2.564 2.564 0 0 0-1.905-.838c-1.471 0-2.69 1.192-2.69 2.666 0 .226.018.445.043.637a7.599 7.599 0 0 1-3.628-1.254C2.295 2.857 1.77 2.206 1.766 2.2a.508.508 0 0 0-.9.391c.012.08.26 1.634 1.197 2.988a1.345 1.345 0 0 1-.374-.107.497.497 0 0 0-.568.044.51.51 0 0 0-.16.56c.022.065.468 1.364 2.095 2.053-.35.1-.658.099-.662.099h-.01a.508.508 0 0 0-.311.91c.04.03.767.583 1.951.863-.414.227-.903.365-1.462.41a5.006 5.006 0 0 1-1.403-.087.508.508 0 0 0-.317.962c.073.03 1.815.75 3.547.75 1.203 0 2.103-.11 2.92-.355a6.115 6.115 0 0 0 2.646-1.598.508.508 0 1 0-.722-.715C7.877 10.74 6.316 11.02 4.39 11.02l-.135-.001A3.797 3.797 0 0 0 5.62 9.97a.508.508 0 0 0-.378-.83 4.926 4.926 0 0 1-1.384-.24 2.23 2.23 0 0 0 .785-.646.508.508 0 0 0-.316-.805c-.853-.153-1.419-.496-1.786-.834.206-.01.432-.042.677-.103a.508.508 0 0 0 .229-.858c-.46-.444-.795-.993-1.034-1.512a8.731 8.731 0 0 0 5.1 1.649.508.508 0 0 0 .49-.64 4.541 4.541 0 0 1-.135-1.036c0-.437.174-.85.491-1.163a1.68 1.68 0 0 1 1.185-.487c.45 0 .841.174 1.163.517.233.22.487.803.487 1.156v.307c0 .011.001.026.004.043a.524.524 0 0 0-.004.059c0 1.154-.214 2.182-.635 3.054a.508.508 0 0 0 .914.442c.489-1.011.737-2.188.737-3.496a.512.512 0 0 0-.004-.057.336.336 0 0 0 .004-.045V4.09c.521-.377.963-.886 1.32-1.422 0 0-.936.444-1.543.482Z" fill="#D1C1EC"/></g><defs><clipPath id="a"><path fill="#fff" transform="translate(.53 .23)" d="M0 0h13v13H0z"/></clipPath></defs></svg>